<?xml version="1.0" encoding="UTF-8"?>
<!DOCTYPE svg PUBLIC "-//W3C//DTD SVG 1.1//EN" "http://www.w3.org/Graphics/SVG/1.1/DTD/svg11.dtd">
<svg xmlns="http://www.w3.org/2000/svg" version="1.1" width="500px" height="500px" style="shape-rendering:geometricPrecision; text-rendering:geometricPrecision; image-rendering:optimizeQuality; fill-rule:evenodd; clip-rule:evenodd" xmlns:xlink="http://www.w3.org/1999/xlink">
<g><path style="opacity:0.008" fill="#7d62ff" d="M 224.5,214.5 C 222.473,214.662 220.473,214.495 218.5,214C 220.712,213.211 222.712,213.378 224.5,214.5 Z"/></g>
<g><path style="opacity:0.004" fill="#fefffe" d="M 260.5,214.5 C 261.251,213.427 262.251,213.26 263.5,214C 262.552,214.483 261.552,214.649 260.5,214.5 Z"/></g>
<g><path style="opacity:1" fill="#6e4efb" d="M 218.5,217.5 C 220.5,216.167 222.5,216.167 224.5,217.5C 225.335,218.943 226.668,219.943 228.5,220.5C 227.678,241.79 227.178,263.124 227,284.5C 226.25,285.126 225.416,285.626 224.5,286C 227.167,287.333 227.167,288.667 224.5,290C 224.833,290.333 225.167,290.667 225.5,291C 221.973,291.808 218.64,291.641 215.5,290.5C 217.372,289.489 219.372,288.655 221.5,288C 221.461,264.624 221.461,241.124 221.5,217.5C 220.5,217.5 219.5,217.5 218.5,217.5 Z"/></g>
<g><path style="opacity:1" fill="#6548fb" d="M 218.5,217.5 C 219.5,217.5 220.5,217.5 221.5,217.5C 221.461,241.124 221.461,264.624 221.5,288C 219.372,288.655 217.372,289.489 215.5,290.5C 214.167,290.167 212.833,289.833 211.5,289.5C 210.833,289.5 210.5,289.167 210.5,288.5C 210.55,266.709 210.55,244.709 210.5,222.5C 212.296,221.207 213.963,219.707 215.5,218C 216.448,217.517 217.448,217.351 218.5,217.5 Z"/></g>
<g><path style="opacity:1" fill="#7856f9" d="M 224.5,217.5 C 227.598,218.216 230.598,219.216 233.5,220.5C 235.136,222.891 236.303,225.558 237,228.5C 238.356,229.38 239.856,229.714 241.5,229.5C 241.558,244.403 241.391,259.403 241,274.5C 240,275.833 239,275.833 238,274.5C 237.308,275.025 236.808,275.692 236.5,276.5C 238.117,276.669 239.784,277.003 241.5,277.5C 240.167,278.5 238.833,279.5 237.5,280.5C 238.641,281.425 238.641,282.259 237.5,283C 238.416,283.278 239.082,283.778 239.5,284.5C 234.963,286.93 230.63,289.597 226.5,292.5C 223.167,292.5 219.833,292.5 216.5,292.5C 215.833,292.5 215.5,292.833 215.5,293.5C 214.778,293.082 214.278,292.416 214,291.5C 212.692,292.151 211.859,291.485 211.5,289.5C 212.833,289.833 214.167,290.167 215.5,290.5C 218.64,291.641 221.973,291.808 225.5,291C 225.167,290.667 224.833,290.333 224.5,290C 227.167,288.667 227.167,287.333 224.5,286C 225.416,285.626 226.25,285.126 227,284.5C 227.178,263.124 227.678,241.79 228.5,220.5C 226.668,219.943 225.335,218.943 224.5,217.5 Z"/></g>
<g><path style="opacity:0.118" fill="#8e7ac8" d="M 224.5,214.5 C 232.537,217.025 240.204,221.025 247.5,226.5C 246.833,226.5 246.5,226.833 246.5,227.5C 243.386,227.445 241.052,226.112 239.5,223.5C 237.517,222.529 235.517,221.529 233.5,220.5C 230.598,219.216 227.598,218.216 224.5,217.5C 222.5,216.167 220.5,216.167 218.5,217.5C 217.448,217.351 216.448,217.517 215.5,218C 213.963,219.707 212.296,221.207 210.5,222.5C 209.811,220.169 210.644,218.169 213,216.5C 213.333,216.833 213.667,217.167 214,217.5C 214.667,216.167 215.667,215.167 217,214.5C 219.605,215.814 222.105,215.814 224.5,214.5 Z"/></g>
<g><path style="opacity:1" fill="#77ece2" d="M 271.5,218.5 C 273.676,220.515 276.176,222.182 279,223.5C 280.688,225.867 282.021,228.2 283,230.5C 283.692,237.855 283.526,244.855 282.5,251.5C 281.193,252.802 281.193,254.135 282.5,255.5C 281.388,257.419 280.054,259.086 278.5,260.5C 279.698,256.512 279.698,252.512 278.5,248.5C 273.28,243.271 267.28,239.271 260.5,236.5C 257.507,233.671 254.173,231.338 250.5,229.5C 249.395,228.4 248.062,227.733 246.5,227.5C 246.5,226.833 246.833,226.5 247.5,226.5C 248.404,225.791 248.737,224.791 248.5,223.5C 250.942,223.646 251.609,222.813 250.5,221C 255.904,214.465 262.571,212.965 270.5,216.5C 271.298,216.957 271.631,217.624 271.5,218.5 Z"/></g>
<g><path style="opacity:1" fill="#7e5aef" d="M 233.5,220.5 C 235.517,221.529 237.517,222.529 239.5,223.5C 241.052,226.112 243.386,227.445 246.5,227.5C 248.062,227.733 249.395,228.4 250.5,229.5C 250.5,245.833 250.5,262.167 250.5,278.5C 250.167,279.167 249.833,279.833 249.5,280.5C 248.833,280.5 248.167,280.5 247.5,280.5C 246.29,280.932 245.29,281.599 244.5,282.5C 242.716,282.893 241.05,283.559 239.5,284.5C 239.082,283.778 238.416,283.278 237.5,283C 238.641,282.259 238.641,281.425 237.5,280.5C 238.833,279.5 240.167,278.5 241.5,277.5C 239.784,277.003 238.117,276.669 236.5,276.5C 236.808,275.692 237.308,275.025 238,274.5C 239,275.833 240,275.833 241,274.5C 241.391,259.403 241.558,244.403 241.5,229.5C 239.856,229.714 238.356,229.38 237,228.5C 236.303,225.558 235.136,222.891 233.5,220.5 Z"/></g>
<g><path style="opacity:0.843" fill="#735dd7" d="M 210.5,222.5 C 210.55,244.709 210.55,266.709 210.5,288.5C 210.656,286.891 209.656,285.558 207.5,284.5C 207.624,283.893 207.957,283.56 208.5,283.5C 209.833,264.167 209.833,244.833 208.5,225.5C 207.611,223.975 208.278,222.975 210.5,222.5 Z"/></g>
<g><path style="opacity:1" fill="#81f5e3" d="M 295.5,278.5 C 295.158,279.338 294.492,279.672 293.5,279.5C 291.511,278.113 289.678,278.447 288,280.5C 287.385,278.884 286.385,277.551 285,276.5C 284.333,261.5 284.333,246.5 285,231.5C 285.167,246.178 285.667,260.845 286.5,275.5C 286.833,275.333 287.167,275.167 287.5,275C 286.51,260.579 286.176,246.079 286.5,231.5C 290.22,231.296 293.553,232.296 296.5,234.5C 293.952,236.219 294.285,237.552 297.5,238.5C 297.158,248.309 296.158,257.976 294.5,267.5C 295.5,268.167 296.5,268.833 297.5,269.5C 296.5,272.167 295.5,274.833 294.5,277.5C 294.624,278.107 294.957,278.44 295.5,278.5 Z"/></g>
<g><path style="opacity:1" fill="#50caf1" d="M 250.5,229.5 C 254.173,231.338 257.507,233.671 260.5,236.5C 256.711,237.596 256.711,238.263 260.5,238.5C 260.666,247.506 260.5,256.506 260,265.5C 259.25,266.126 258.416,266.626 257.5,267C 259.279,268.14 260.946,269.307 262.5,270.5C 259.226,274.145 255.226,276.812 250.5,278.5C 250.5,262.167 250.5,245.833 250.5,229.5 Z"/></g>
<g><path style="opacity:1" fill="#90f2e0" d="M 321.5,250.5 C 320.167,250.833 320.167,251.167 321.5,251.5C 321.904,252.756 322.571,253.923 323.5,255C 322.944,256.011 322.278,256.844 321.5,257.5C 320.836,258.648 320.669,259.981 321,261.5C 316.124,266.852 310.791,270.852 305,273.5C 304.667,273.167 304.333,272.833 304,272.5C 303.626,273.416 303.126,274.25 302.5,275C 300.03,275.989 297.697,277.155 295.5,278.5C 294.957,278.44 294.624,278.107 294.5,277.5C 295.5,274.833 296.5,272.167 297.5,269.5C 296.5,268.833 295.5,268.167 294.5,267.5C 296.158,257.976 297.158,248.309 297.5,238.5C 294.285,237.552 293.952,236.219 296.5,234.5C 293.553,232.296 290.22,231.296 286.5,231.5C 286.176,246.079 286.51,260.579 287.5,275C 287.167,275.167 286.833,275.333 286.5,275.5C 285.667,260.845 285.167,246.178 285,231.5C 284.333,246.5 284.333,261.5 285,276.5C 286.385,277.551 287.385,278.884 288,280.5C 289.678,278.447 291.511,278.113 293.5,279.5C 288,283.839 282.334,287.172 276.5,289.5C 276.167,288.167 275.833,288.167 275.5,289.5C 275.167,289.5 274.833,289.5 274.5,289.5C 276.727,287.357 279.061,285.19 281.5,283C 280.833,282.667 280.167,282.333 279.5,282C 281.398,281.1 283.064,279.934 284.5,278.5C 283.335,277.416 282.002,276.583 280.5,276C 281.191,274.933 281.691,273.766 282,272.5C 282.333,273.167 282.667,273.833 283,274.5C 283.442,266.504 283.275,258.838 282.5,251.5C 283.526,244.855 283.692,237.855 283,230.5C 282.021,228.2 280.688,225.867 279,223.5C 276.176,222.182 273.676,220.515 271.5,218.5C 272.423,217.697 273.423,217.53 274.5,218C 279.311,220.051 283.811,223.218 288,227.5C 292.191,227.911 295.858,229.911 299,233.5C 299.333,233.167 299.667,232.833 300,232.5C 302.653,234.155 304.986,236.155 307,238.5C 308,238.5 309,238.5 310,238.5C 312.822,242.052 315.988,244.552 319.5,246C 319.167,246.333 318.833,246.667 318.5,247C 320.426,247.422 321.426,248.589 321.5,250.5 Z"/></g>
<g><path style="opacity:1" fill="#4cc4f1" d="M 260.5,236.5 C 267.28,239.271 273.28,243.271 278.5,248.5C 279.698,252.512 279.698,256.512 278.5,260.5C 274.148,265.346 268.815,268.679 262.5,270.5C 260.946,269.307 259.279,268.14 257.5,267C 258.416,266.626 259.25,266.126 260,265.5C 260.5,256.506 260.666,247.506 260.5,238.5C 256.711,238.263 256.711,237.596 260.5,236.5 Z"/></g>
<g><path style="opacity:0.153" fill="#9d94e0" d="M 208.5,225.5 C 209.833,244.833 209.833,264.167 208.5,283.5C 207.167,264.167 207.167,244.833 208.5,225.5 Z"/></g>
<g><path style="opacity:0.008" fill="#b4fffe" d="M 321.5,250.5 C 322.833,251.167 322.833,251.167 321.5,250.5 Z"/></g>
<g><path style="opacity:0.004" fill="#80fffe" d="M 321.5,257.5 C 322.833,258.167 322.833,258.167 321.5,257.5 Z"/></g>
<g><path style="opacity:1" fill="#77eae1" d="M 282.5,251.5 C 283.275,258.838 283.442,266.504 283,274.5C 282.667,273.833 282.333,273.167 282,272.5C 281.691,273.766 281.191,274.933 280.5,276C 282.002,276.583 283.335,277.416 284.5,278.5C 283.064,279.934 281.398,281.1 279.5,282C 280.167,282.333 280.833,282.667 281.5,283C 279.061,285.19 276.727,287.357 274.5,289.5C 274.5,290.167 274.833,290.5 275.5,290.5C 273.544,291.492 271.544,292.492 269.5,293.5C 269.103,292.475 268.437,292.308 267.5,293C 266.167,293.667 266.167,294.333 267.5,295C 264.167,295.667 260.833,295.667 257.5,295C 257.833,294.667 258.167,294.333 258.5,294C 257.24,292.887 256.073,292.72 255,293.5C 253.667,292.167 252.333,290.833 251,289.5C 250.383,288.551 250.549,287.718 251.5,287C 249.68,286.021 248.513,284.521 248,282.5C 246.404,281.952 245.237,282.618 244.5,284.5C 244.5,283.833 244.5,283.167 244.5,282.5C 245.29,281.599 246.29,280.932 247.5,280.5C 248.167,281.833 248.833,281.833 249.5,280.5C 249.833,279.833 250.167,279.167 250.5,278.5C 255.226,276.812 259.226,274.145 262.5,270.5C 268.815,268.679 274.148,265.346 278.5,260.5C 280.054,259.086 281.388,257.419 282.5,255.5C 281.193,254.135 281.193,252.802 282.5,251.5 Z"/></g>
<g><path style="opacity:0.004" fill="#8080ff" d="M 234.5,289.5 C 234.833,289.5 235.167,289.5 235.5,289.5C 235.315,290.17 234.981,290.17 234.5,289.5 Z"/></g>
<g><path style="opacity:0.004" fill="#83fffe" d="M 275.5,289.5 C 275.833,289.5 276.167,289.5 276.5,289.5C 276.315,290.17 275.981,290.17 275.5,289.5 Z"/></g>
<g><path style="opacity:0.745" fill="#897fb4" d="M 216.5,293.5 C 216.5,293.167 216.5,292.833 216.5,292.5C 219.833,292.5 223.167,292.5 226.5,292.5C 226.5,292.833 226.5,293.167 226.5,293.5C 225.259,295.931 224.092,295.931 223,293.5C 222.692,294.308 222.192,294.975 221.5,295.5C 220.5,294.167 219.5,294.167 218.5,295.5C 217.304,295.154 217.304,294.654 218.5,294C 217.906,293.536 217.239,293.369 216.5,293.5 Z"/></g>
<g><path style="opacity:0.004" fill="#7d6dbb" d="M 244.5,282.5 C 244.5,283.167 244.5,283.833 244.5,284.5C 241.661,286.42 238.661,288.087 235.5,289.5C 235.167,288.167 234.833,288.167 234.5,289.5C 232.577,290.252 230.577,291.585 228.5,293.5C 228.158,292.662 227.492,292.328 226.5,292.5C 230.63,289.597 234.963,286.93 239.5,284.5C 241.05,283.559 242.716,282.893 244.5,282.5 Z"/></g>
<g><path style="opacity:0.004" fill="#0000ff" d="M 215.5,293.5 C 215.833,293.5 216.167,293.5 216.5,293.5C 216.315,294.17 215.981,294.17 215.5,293.5 Z"/></g>
<g><path style="opacity:0.004" fill="#0000ff" d="M 226.5,293.5 C 227.167,293.5 227.833,293.5 228.5,293.5C 227.833,294.833 227.167,294.833 226.5,293.5 Z"/></g>
<g><path style="opacity:0.004" fill="#fefffe" d="M 269.5,293.5 C 268.833,294.167 268.833,294.167 269.5,293.5 Z"/></g>
</svg>
