<?xml version="1.0" encoding="UTF-8"?>
<!DOCTYPE svg PUBLIC "-//W3C//DTD SVG 1.1//EN" "http://www.w3.org/Graphics/SVG/1.1/DTD/svg11.dtd">
<svg xmlns="http://www.w3.org/2000/svg" version="1.1" width="500px" height="500px" style="shape-rendering:geometricPrecision; text-rendering:geometricPrecision; image-rendering:optimizeQuality; fill-rule:evenodd; clip-rule:evenodd" xmlns:xlink="http://www.w3.org/1999/xlink">
<g><path style="opacity:0.225" fill="#584a99" d="M 104.5,74.5 C 104.5,75.5 104.5,76.5 104.5,77.5C 100.788,77.9608 97.1211,78.6275 93.5,79.5C 96.0278,75.7035 99.6944,74.0369 104.5,74.5 Z"/></g>
<g><path style="opacity:0.101" fill="#316a64" d="M 263.5,74.5 C 263.5,75.5 263.5,76.5 263.5,77.5C 261.5,77.5 259.5,77.5 257.5,77.5C 258.607,75.0311 260.607,74.0311 263.5,74.5 Z"/></g>
<g><path style="opacity:0.22" fill="#6aa49c" d="M 263.5,74.5 C 269.868,74.1703 276.202,74.5037 282.5,75.5C 282.863,76.1835 283.196,76.8501 283.5,77.5C 276.833,77.5 270.167,77.5 263.5,77.5C 263.5,76.5 263.5,75.5 263.5,74.5 Z"/></g>
<g><path style="opacity:0.133" fill="#496767" d="M 255.5,77.5 C 254.817,79.1765 253.483,79.8432 251.5,79.5C 252.183,77.8235 253.517,77.1568 255.5,77.5 Z"/></g>
<g><path style="opacity:1" fill="#6e4efc" d="M 129.5,81.5 C 129.773,83.451 129.107,84.951 127.5,86C 131.783,89.8795 136.45,90.3795 141.5,87.5C 143.517,88.1743 145.183,89.3409 146.5,91C 145.437,92.1882 144.103,92.6882 142.5,92.5C 142.5,93.5 142.5,94.5 142.5,95.5C 139.944,96.5434 137.777,98.2101 136,100.5C 135.667,179.5 135.333,258.5 135,337.5C 133.554,342.898 130.054,344.898 124.5,343.5C 124.5,344.5 124.5,345.5 124.5,346.5C 126.877,346.784 129.044,346.784 131,346.5C 131.212,349.758 131.712,352.924 132.5,356C 130.043,357.562 127.376,358.562 124.5,359C 127.987,360.95 128.321,363.283 125.5,366C 118.167,366.667 110.833,366.667 103.5,366C 103.167,365.667 102.833,365.333 102.5,365C 105.975,362.692 109.308,360.192 112.5,357.5C 115.704,356.796 118.871,356.13 122,355.5C 122.684,354.216 122.517,353.049 121.5,352C 118.112,351.341 114.779,351.508 111.5,352.5C 111.956,348.889 111.289,345.556 109.5,342.5C 110.48,341.019 111.647,339.685 113,338.5C 113.333,257.167 113.667,175.833 114,94.5C 116.018,92.4779 116.852,89.9779 116.5,87C 116.435,84.7746 116.102,82.6079 115.5,80.5C 114.5,80.1667 113.5,79.8333 112.5,79.5C 108.833,80.8344 105.166,82.1677 101.5,83.5C 92.9792,84.2446 86.9792,88.5779 83.5,96.5C 84.9079,97.2432 86.2412,98.0766 87.5,99C 85.1684,100.982 83.335,100.482 82,97.5C 80.955,98.3734 80.1217,99.3734 79.5,100.5C 78.525,103.311 77.8583,106.311 77.5,109.5C 76.0413,109.433 74.7079,109.766 73.5,110.5C 74.7069,106.628 75.7069,102.628 76.5,98.5C 81.296,94.2231 85.6293,89.5565 89.5,84.5C 89.8333,84.5 90.1667,84.5 90.5,84.5C 96.451,82.7363 102.451,80.903 108.5,79C 115.851,77.7847 122.851,78.618 129.5,81.5 Z"/></g>
<g><path style="opacity:0.796" fill="#7561cb" d="M 104.5,74.5 C 112.167,74.5 119.833,74.5 127.5,74.5C 127.48,76.143 128.147,77.4763 129.5,78.5C 132.428,79.4841 135.428,79.8174 138.5,79.5C 141.167,80.1667 143.833,80.8333 146.5,81.5C 146.5,82.5 146.5,83.5 146.5,84.5C 147.552,84.3505 148.552,84.5172 149.5,85C 151.614,87.2797 153.947,89.113 156.5,90.5C 154.435,90.4828 152.435,90.1495 150.5,89.5C 146.253,86.9759 141.92,84.6426 137.5,82.5C 134.797,81.037 131.797,80.2037 128.5,80C 127.833,79.3333 127.167,78.6667 126.5,78C 119.174,77.5003 111.841,77.3337 104.5,77.5C 104.5,76.5 104.5,75.5 104.5,74.5 Z"/></g>
<g><path style="opacity:0.624" fill="#584990" d="M 127.5,74.5 C 128.873,74.3433 130.207,74.51 131.5,75C 133.891,76.6032 136.224,78.1032 138.5,79.5C 135.428,79.8174 132.428,79.4841 129.5,78.5C 128.147,77.4763 127.48,76.143 127.5,74.5 Z"/></g>
<g><path style="opacity:1" fill="#684bfc" d="M 111.5,352.5 C 110.942,353.79 109.942,354.623 108.5,355C 106.08,355.29 103.746,355.79 101.5,356.5C 101.756,354.224 103.09,353.057 105.5,353C 105,352.5 104.5,352 104,351.5C 98.3876,353.996 96.0543,352.329 97,346.5C 103.719,344.673 105.052,341.006 101,335.5C 100.333,326.833 100.333,318.167 101,309.5C 104.333,307.5 104.333,305.5 101,303.5C 100.667,246.5 100.333,189.5 100,132.5C 98.6485,130.406 98.1485,128.073 98.5,125.5C 100.722,125.178 102.556,125.845 104,127.5C 104.927,124.404 103.927,122.07 101,120.5C 100.333,113.833 100.333,107.167 101,100.5C 106.086,98.3418 106.586,95.5084 102.5,92C 104.245,90.308 104.578,88.4747 103.5,86.5C 102.391,87.5896 101.391,87.5896 100.5,86.5C 101.127,85.5832 101.461,84.5832 101.5,83.5C 105.166,82.1677 108.833,80.8344 112.5,79.5C 113.5,79.8333 114.5,80.1667 115.5,80.5C 116.102,82.6079 116.435,84.7746 116.5,87C 116.852,89.9779 116.018,92.4779 114,94.5C 113.667,175.833 113.333,257.167 113,338.5C 111.647,339.685 110.48,341.019 109.5,342.5C 111.289,345.556 111.956,348.889 111.5,352.5 Z"/></g>
<g><path style="opacity:0.982" fill="#7058e5" d="M 104.5,77.5 C 111.841,77.3337 119.174,77.5003 126.5,78C 127.167,78.6667 127.833,79.3333 128.5,80C 131.797,80.2037 134.797,81.037 137.5,82.5C 134.794,82.4249 132.127,82.0916 129.5,81.5C 122.851,78.618 115.851,77.7847 108.5,79C 102.451,80.903 96.451,82.7363 90.5,84.5C 91.5272,82.816 92.5272,81.1494 93.5,79.5C 97.1211,78.6275 100.788,77.9608 104.5,77.5 Z"/></g>
<g><path style="opacity:0.953" fill="#84dbd2" d="M 255.5,77.5 C 256.167,77.5 256.833,77.5 257.5,77.5C 259.5,77.5 261.5,77.5 263.5,77.5C 270.167,77.5 276.833,77.5 283.5,77.5C 289.155,77.6676 294.488,79.0009 299.5,81.5C 299.5,82.5 299.5,83.5 299.5,84.5C 303.426,86.4023 307.092,88.7356 310.5,91.5C 305.785,91.1006 301.785,89.2673 298.5,86C 296.866,85.5065 295.199,85.3398 293.5,85.5C 292.942,84.2101 291.942,83.3768 290.5,83C 282.391,81.9732 274.391,80.4732 266.5,78.5C 259.833,77.8402 255.499,80.5069 253.5,86.5C 246.441,86.3635 241.608,89.6969 239,96.5C 238.184,97.8228 237.017,98.4894 235.5,98.5C 236.871,96.7408 237.871,94.7408 238.5,92.5C 241.903,90.1002 244.57,87.1002 246.5,83.5C 246.5,82.8333 246.5,82.1667 246.5,81.5C 248.011,80.4975 249.678,79.8308 251.5,79.5C 253.483,79.8432 254.817,79.1765 255.5,77.5 Z"/></g>
<g><path style="opacity:0.169" fill="#3c5757" d="M 246.5,81.5 C 246.5,82.1667 246.5,82.8333 246.5,83.5C 245.167,83.5 243.833,83.5 242.5,83.5C 243.183,81.8235 244.517,81.1568 246.5,81.5 Z"/></g>
<g><path style="opacity:1" fill="#6548fd" d="M 101.5,83.5 C 101.461,84.5832 101.127,85.5832 100.5,86.5C 101.391,87.5896 102.391,87.5896 103.5,86.5C 104.578,88.4747 104.245,90.308 102.5,92C 106.586,95.5084 106.086,98.3418 101,100.5C 100.333,107.167 100.333,113.833 101,120.5C 103.927,122.07 104.927,124.404 104,127.5C 102.556,125.845 100.722,125.178 98.5,125.5C 98.1485,128.073 98.6485,130.406 100,132.5C 100.333,189.5 100.667,246.5 101,303.5C 104.333,305.5 104.333,307.5 101,309.5C 100.333,318.167 100.333,326.833 101,335.5C 105.052,341.006 103.719,344.673 97,346.5C 96.0543,352.329 98.3876,353.996 104,351.5C 104.5,352 105,352.5 105.5,353C 103.09,353.057 101.756,354.224 101.5,356.5C 100.933,358.03 100.267,359.53 99.5,361C 100.973,361.71 101.64,362.876 101.5,364.5C 100.127,364.657 98.7932,364.49 97.5,364C 95.4534,362.927 93.4534,361.761 91.5,360.5C 92.8333,359.5 92.8333,358.5 91.5,357.5C 92.7357,356.643 94.069,355.977 95.5,355.5C 96.3857,354.675 96.719,353.675 96.5,352.5C 93.1934,352.063 90.1934,352.73 87.5,354.5C 85.104,352.75 83.104,350.583 81.5,348C 80.2068,347.51 78.8734,347.343 77.5,347.5C 76.8629,344.544 76.3629,341.544 76,338.5C 75.0053,337.934 74.172,337.267 73.5,336.5C 76.7194,334.776 78.7194,335.776 79.5,339.5C 76.8191,342.132 76.9858,344.466 80,346.5C 81.9755,345.572 83.8089,344.405 85.5,343C 83.2404,340.013 82.5737,336.846 83.5,333.5C 84.8221,333.33 85.9887,333.663 87,334.5C 87.8699,333.892 88.3699,333.059 88.5,332C 85.9881,328.985 83.6548,325.818 81.5,322.5C 83.9086,321.278 85.742,321.945 87,324.5C 89.043,322.912 88.8764,321.579 86.5,320.5C 85.8316,254.266 85.165,188.099 84.5,122C 85.1469,117.643 86.4802,113.476 88.5,109.5C 88.4435,108.263 87.9435,107.263 87,106.5C 84.741,112.03 83.5743,111.696 83.5,105.5C 84.552,105.649 85.552,105.483 86.5,105C 84.5,104.333 83.1667,103 82.5,101C 81.552,100.517 80.552,100.351 79.5,100.5C 80.1217,99.3734 80.955,98.3734 82,97.5C 83.335,100.482 85.1684,100.982 87.5,99C 86.2412,98.0766 84.9079,97.2432 83.5,96.5C 86.9792,88.5779 92.9792,84.2446 101.5,83.5 Z"/></g>
<g><path style="opacity:1" fill="#6febe4" d="M 293.5,85.5 C 291.06,88.0783 291.394,89.4116 294.5,89.5C 294.67,90.8221 294.337,91.9887 293.5,93C 291.343,93.0781 289.343,93.2448 287.5,93.5C 283.708,90.8644 280.041,91.0311 276.5,94C 278.125,94.8525 278.458,95.8525 277.5,97C 279.308,110.926 280.141,125.093 280,139.5C 283.349,139.999 286.516,140.999 289.5,142.5C 291.644,141.047 293.477,141.38 295,143.5C 295.333,141.833 295.667,140.167 296,138.5C 298,142.833 298,147.167 296,151.5C 295.667,149.167 295.333,146.833 295,144.5C 294.586,144.957 294.086,145.291 293.5,145.5C 289.013,144.74 284.68,143.907 280.5,143C 279.932,145.684 278.932,148.184 277.5,150.5C 278.848,152.657 280.848,153.99 283.5,154.5C 283.137,155.183 282.804,155.85 282.5,156.5C 279.622,155.63 276.955,154.297 274.5,152.5C 273.614,151.675 273.281,150.675 273.5,149.5C 265.074,148.287 258.074,144.454 252.5,138C 249.133,137.2 245.966,136.034 243,134.5C 242.667,134.833 242.333,135.167 242,135.5C 239.727,132.196 236.561,130.696 232.5,131C 231.616,129.28 230.283,128.114 228.5,127.5C 228.167,127.5 227.833,127.5 227.5,127.5C 226.221,122.372 226.721,117.372 229,112.5C 233.058,108.685 235.224,104.019 235.5,98.5C 237.017,98.4894 238.184,97.8228 239,96.5C 241.608,89.6969 246.441,86.3635 253.5,86.5C 255.499,80.5069 259.833,77.8402 266.5,78.5C 274.391,80.4732 282.391,81.9732 290.5,83C 291.942,83.3768 292.942,84.2101 293.5,85.5 Z"/></g>
<g><path style="opacity:0.463" fill="#3e3563" d="M 146.5,81.5 C 148.288,81.2148 149.955,81.5481 151.5,82.5C 154.726,84.5671 158.06,86.4005 161.5,88C 164.68,89.3494 167.013,91.516 168.5,94.5C 164.637,92.8203 160.637,91.487 156.5,90.5C 153.947,89.113 151.614,87.2797 149.5,85C 148.552,84.5172 147.552,84.3505 146.5,84.5C 146.5,83.5 146.5,82.5 146.5,81.5 Z"/></g>
<g><path style="opacity:0.314" fill="#453e75" d="M 93.5,79.5 C 92.5272,81.1494 91.5272,82.816 90.5,84.5C 90.1667,84.5 89.8333,84.5 89.5,84.5C 88.0222,84.238 86.6888,84.5713 85.5,85.5C 83.6719,88.0128 81.3385,89.6794 78.5,90.5C 78.646,93.5539 77.3126,95.5539 74.5,96.5C 76.1293,92.0129 78.4627,87.8462 81.5,84C 85.3325,81.9663 89.3325,80.4663 93.5,79.5 Z"/></g>
<g><path style="opacity:0.076" fill="#3a514e" d="M 299.5,81.5 C 304,82.4113 308.333,83.9113 312.5,86C 315.077,88.0828 317.41,90.2495 319.5,92.5C 314.052,90.2762 308.718,87.7762 303.5,85C 302.207,84.51 300.873,84.3433 299.5,84.5C 299.5,83.5 299.5,82.5 299.5,81.5 Z"/></g>
<g><path style="opacity:0.98" fill="#5c4ab9" d="M 89.5,84.5 C 85.6293,89.5565 81.296,94.2231 76.5,98.5C 75.7069,102.628 74.7069,106.628 73.5,110.5C 73.5,110.833 73.5,111.167 73.5,111.5C 72.5987,112.29 71.9321,113.29 71.5,114.5C 71.1667,114.5 70.8333,114.5 70.5,114.5C 70.6933,111.692 71.36,109.025 72.5,106.5C 73.1667,103.167 73.8333,99.8333 74.5,96.5C 77.3126,95.5539 78.646,93.5539 78.5,90.5C 81.3385,89.6794 83.6719,88.0128 85.5,85.5C 86.6888,84.5713 88.0222,84.238 89.5,84.5 Z"/></g>
<g><path style="opacity:0.725" fill="#6ba9a0" d="M 299.5,84.5 C 300.873,84.3433 302.207,84.51 303.5,85C 308.718,87.7762 314.052,90.2762 319.5,92.5C 319.5,93.1667 319.5,93.8333 319.5,94.5C 316.658,92.9827 313.658,91.9827 310.5,91.5C 307.092,88.7356 303.426,86.4023 299.5,84.5 Z"/></g>
<g><path style="opacity:1" fill="#7856fa" d="M 129.5,81.5 C 132.127,82.0916 134.794,82.4249 137.5,82.5C 141.92,84.6426 146.253,86.9759 150.5,89.5C 150.328,90.4916 150.662,91.1583 151.5,91.5C 153.768,94.3113 156.768,96.1446 160.5,97C 161.227,99.124 161.894,101.291 162.5,103.5C 163.628,104.262 164.795,104.929 166,105.5C 164.718,109.135 165.884,111.802 169.5,113.5C 168.68,115.111 167.346,115.778 165.5,115.5C 166.293,121.016 164.959,125.849 161.5,130C 162.319,131.319 163.319,132.485 164.5,133.5C 165.5,201.497 165.833,269.497 165.5,337.5C 160.833,337.833 156.167,338.167 151.5,338.5C 151.5,339.833 151.5,341.167 151.5,342.5C 143.571,341.384 143.571,339.717 151.5,337.5C 151.5,257.5 151.5,177.5 151.5,97.5C 148.171,97.7847 145.171,97.1181 142.5,95.5C 142.5,94.5 142.5,93.5 142.5,92.5C 144.103,92.6882 145.437,92.1882 146.5,91C 145.183,89.3409 143.517,88.1743 141.5,87.5C 136.45,90.3795 131.783,89.8795 127.5,86C 129.107,84.951 129.773,83.451 129.5,81.5 Z"/></g>
<g><path style="opacity:0.218" fill="#446766" d="M 242.5,83.5 C 240.239,87.1185 237.906,90.7851 235.5,94.5C 234.476,95.8532 233.143,96.5198 231.5,96.5C 233.349,90.5479 237.016,86.2145 242.5,83.5 Z"/></g>
<g><path style="opacity:1" fill="#7352fa" d="M 142.5,95.5 C 145.171,97.1181 148.171,97.7847 151.5,97.5C 151.5,177.5 151.5,257.5 151.5,337.5C 143.571,339.717 143.571,341.384 151.5,342.5C 155.424,341.835 159.424,342.002 163.5,343C 164.756,343.417 165.423,344.25 165.5,345.5C 163.09,347.589 160.757,349.589 158.5,351.5C 156.763,353.55 154.763,355.383 152.5,357C 145.791,359.688 139.457,362.855 133.5,366.5C 132.234,367.09 130.901,367.59 129.5,368C 119.5,368.667 109.5,368.667 99.5,368C 93.6759,365.591 88.3426,362.424 83.5,358.5C 81.5164,354.843 79.5164,351.176 77.5,347.5C 78.8734,347.343 80.2068,347.51 81.5,348C 83.104,350.583 85.104,352.75 87.5,354.5C 90.1934,352.73 93.1934,352.063 96.5,352.5C 96.719,353.675 96.3857,354.675 95.5,355.5C 94.069,355.977 92.7357,356.643 91.5,357.5C 92.8333,358.5 92.8333,359.5 91.5,360.5C 93.4534,361.761 95.4534,362.927 97.5,364C 98.7932,364.49 100.127,364.657 101.5,364.5C 101.64,362.876 100.973,361.71 99.5,361C 100.267,359.53 100.933,358.03 101.5,356.5C 103.746,355.79 106.08,355.29 108.5,355C 109.942,354.623 110.942,353.79 111.5,352.5C 114.779,351.508 118.112,351.341 121.5,352C 122.517,353.049 122.684,354.216 122,355.5C 118.871,356.13 115.704,356.796 112.5,357.5C 109.308,360.192 105.975,362.692 102.5,365C 102.833,365.333 103.167,365.667 103.5,366C 110.833,366.667 118.167,366.667 125.5,366C 128.321,363.283 127.987,360.95 124.5,359C 127.376,358.562 130.043,357.562 132.5,356C 131.712,352.924 131.212,349.758 131,346.5C 129.044,346.784 126.877,346.784 124.5,346.5C 124.5,345.5 124.5,344.5 124.5,343.5C 130.054,344.898 133.554,342.898 135,337.5C 135.333,258.5 135.667,179.5 136,100.5C 137.777,98.2101 139.944,96.5434 142.5,95.5 Z"/></g>
<g><path style="opacity:0.731" fill="#715dba" d="M 156.5,90.5 C 160.637,91.487 164.637,92.8203 168.5,94.5C 169.833,95.1667 171.167,95.8333 172.5,96.5C 173.502,98.0109 174.169,99.6776 174.5,101.5C 172.196,99.7413 169.529,98.5746 166.5,98C 165.743,96.4878 164.743,95.1545 163.5,94C 161.006,92.9683 158.672,91.8017 156.5,90.5 Z"/></g>
<g><path style="opacity:0.229" fill="#567e7a" d="M 319.5,92.5 C 324.407,93.3929 328.74,95.3929 332.5,98.5C 332.5,99.5 332.5,100.5 332.5,101.5C 330.989,100.498 329.322,99.8308 327.5,99.5C 324.569,98.1973 321.902,96.5306 319.5,94.5C 319.5,93.8333 319.5,93.1667 319.5,92.5 Z"/></g>
<g><path style="opacity:1" fill="#6145fd" d="M 79.5,100.5 C 80.552,100.351 81.552,100.517 82.5,101C 83.1667,103 84.5,104.333 86.5,105C 85.552,105.483 84.552,105.649 83.5,105.5C 83.5743,111.696 84.741,112.03 87,106.5C 87.9435,107.263 88.4435,108.263 88.5,109.5C 86.4802,113.476 85.1469,117.643 84.5,122C 85.165,188.099 85.8316,254.266 86.5,320.5C 88.8764,321.579 89.043,322.912 87,324.5C 85.742,321.945 83.9086,321.278 81.5,322.5C 83.6548,325.818 85.9881,328.985 88.5,332C 88.3699,333.059 87.8699,333.892 87,334.5C 85.9887,333.663 84.8221,333.33 83.5,333.5C 82.5737,336.846 83.2404,340.013 85.5,343C 83.8089,344.405 81.9755,345.572 80,346.5C 76.9858,344.466 76.8191,342.132 79.5,339.5C 78.7194,335.776 76.7194,334.776 73.5,336.5C 73.5,334.5 73.5,332.5 73.5,330.5C 72.1827,257.489 72.1827,184.489 73.5,111.5C 73.5,111.167 73.5,110.833 73.5,110.5C 74.7079,109.766 76.0413,109.433 77.5,109.5C 77.8583,106.311 78.525,103.311 79.5,100.5 Z"/></g>
<g><path style="opacity:1" fill="#7e5dec" d="M 150.5,89.5 C 152.435,90.1495 154.435,90.4828 156.5,90.5C 158.672,91.8017 161.006,92.9683 163.5,94C 164.743,95.1545 165.743,96.4878 166.5,98C 169.529,98.5746 172.196,99.7413 174.5,101.5C 174.953,102.458 175.619,103.292 176.5,104C 190.01,110.92 203.343,118.087 216.5,125.5C 216.557,126.609 216.89,127.609 217.5,128.5C 215.379,128.675 213.379,128.341 211.5,127.5C 209.983,126.265 208.316,126.265 206.5,127.5C 205.478,127.145 204.811,126.478 204.5,125.5C 199.519,121.524 194.519,117.524 189.5,113.5C 187.885,112.846 186.218,112.346 184.5,112C 180.196,107.443 174.862,104.777 168.5,104C 165.794,101.629 163.461,98.9628 161.5,96C 158.413,93.8802 155.079,92.3802 151.5,91.5C 150.662,91.1583 150.328,90.4916 150.5,89.5 Z"/></g>
<g><path style="opacity:0.227" fill="#5c4e89" d="M 172.5,96.5 C 175.919,97.7078 179.253,99.2078 182.5,101C 184.635,101.876 185.969,103.376 186.5,105.5C 182.698,103.6 178.698,102.267 174.5,101.5C 174.169,99.6776 173.502,98.0109 172.5,96.5 Z"/></g>
<g><path style="opacity:0.125" fill="#405956" d="M 332.5,98.5 C 334.339,99.5819 336.339,100.415 338.5,101C 343.227,105.018 348.227,108.518 353.5,111.5C 348.161,112.089 344.494,110.089 342.5,105.5C 338.932,104.715 335.599,103.382 332.5,101.5C 332.5,100.5 332.5,99.5 332.5,98.5 Z"/></g>
<g><path style="opacity:0.463" fill="#3c3766" d="M 74.5,96.5 C 73.8333,99.8333 73.1667,103.167 72.5,106.5C 71.5,106.5 70.5,106.5 69.5,106.5C 69.6906,103.017 70.3573,99.6839 71.5,96.5C 72.5,96.5 73.5,96.5 74.5,96.5 Z"/></g>
<g><path style="opacity:0.178" fill="#2e5054" d="M 231.5,97.5 C 231.181,100.806 229.847,103.473 227.5,105.5C 227.312,101.948 228.645,99.2814 231.5,97.5 Z"/></g>
<g><path style="opacity:1" fill="#78f0e3" d="M 293.5,85.5 C 295.199,85.3398 296.866,85.5065 298.5,86C 301.785,89.2673 305.785,91.1006 310.5,91.5C 313.658,91.9827 316.658,92.9827 319.5,94.5C 321.902,96.5306 324.569,98.1973 327.5,99.5C 329.767,101.778 332.433,103.611 335.5,105C 337.226,107.593 339.226,109.927 341.5,112C 346.155,114.243 350.822,116.576 355.5,119C 359.574,119.114 363.24,120.28 366.5,122.5C 367.568,123.434 368.901,123.768 370.5,123.5C 370.549,126.099 371.549,128.266 373.5,130C 377.671,130.669 381.671,131.836 385.5,133.5C 386.167,134.167 386.833,134.833 387.5,135.5C 387.5,135.833 387.5,136.167 387.5,136.5C 380.564,134.617 373.564,132.95 366.5,131.5C 364.409,132.058 362.242,132.391 360,132.5C 357.976,132.2 357.476,131.367 358.5,130C 357.747,128.513 356.914,128.346 356,129.5C 355.395,127.519 354.395,127.185 353,128.5C 350.286,126.964 347.453,125.63 344.5,124.5C 343.682,126.108 343.015,127.775 342.5,129.5C 342.55,141.32 342.55,153.32 342.5,165.5C 343.552,165.351 344.552,165.517 345.5,166C 343.479,166.401 342.145,167.568 341.5,169.5C 342.575,172.438 342.741,175.438 342,178.5C 340.294,179.308 339.461,180.641 339.5,182.5C 336.495,182.747 333.995,181.747 332,179.5C 330.897,183.048 329.73,182.715 328.5,178.5C 326.376,177.542 324.376,176.375 322.5,175C 320.597,174.226 318.93,174.56 317.5,176C 322.165,178.503 324.998,182.337 326,187.5C 330.28,190.066 333.114,193.733 334.5,198.5C 329.089,192.914 323.756,187.081 318.5,181C 316.975,179.991 315.308,179.491 313.5,179.5C 312.933,177.97 312.267,176.47 311.5,175C 307.59,173.093 304.256,170.427 301.5,167C 297.288,166.603 294.954,164.436 294.5,160.5C 291.057,157.961 287.057,156.628 282.5,156.5C 282.804,155.85 283.137,155.183 283.5,154.5C 280.848,153.99 278.848,152.657 277.5,150.5C 278.932,148.184 279.932,145.684 280.5,143C 284.68,143.907 289.013,144.74 293.5,145.5C 294.086,145.291 294.586,144.957 295,144.5C 295.333,146.833 295.667,149.167 296,151.5C 298,147.167 298,142.833 296,138.5C 295.667,140.167 295.333,141.833 295,143.5C 293.477,141.38 291.644,141.047 289.5,142.5C 286.516,140.999 283.349,139.999 280,139.5C 280.141,125.093 279.308,110.926 277.5,97C 278.458,95.8525 278.125,94.8525 276.5,94C 280.041,91.0311 283.708,90.8644 287.5,93.5C 289.343,93.2448 291.343,93.0781 293.5,93C 294.337,91.9887 294.67,90.8221 294.5,89.5C 291.394,89.4116 291.06,88.0783 293.5,85.5 Z"/></g>
<g><path style="opacity:0.984" fill="#7cc9c6" d="M 242.5,83.5 C 243.833,83.5 245.167,83.5 246.5,83.5C 244.57,87.1002 241.903,90.1002 238.5,92.5C 237.871,94.7408 236.871,96.7408 235.5,98.5C 235.224,104.019 233.058,108.685 229,112.5C 226.721,117.372 226.221,122.372 227.5,127.5C 226.833,127.5 226.167,127.5 225.5,127.5C 225.5,127.167 225.5,126.833 225.5,126.5C 225.806,123.615 225.473,120.948 224.5,118.5C 224.5,115.5 224.5,112.5 224.5,109.5C 225.5,109.5 226.5,109.5 227.5,109.5C 227.5,108.167 227.5,106.833 227.5,105.5C 229.847,103.473 231.181,100.806 231.5,97.5C 231.5,97.1667 231.5,96.8333 231.5,96.5C 233.143,96.5198 234.476,95.8532 235.5,94.5C 237.906,90.7851 240.239,87.1185 242.5,83.5 Z"/></g>
<g><path style="opacity:0.996" fill="#85d7cc" d="M 327.5,99.5 C 329.322,99.8308 330.989,100.498 332.5,101.5C 335.599,103.382 338.932,104.715 342.5,105.5C 344.494,110.089 348.161,112.089 353.5,111.5C 354.894,113.481 356.727,115.148 359,116.5C 359.765,116.43 360.265,116.097 360.5,115.5C 361.833,116.5 363.167,117.5 364.5,118.5C 365.167,119.833 365.833,121.167 366.5,122.5C 363.24,120.28 359.574,119.114 355.5,119C 350.822,116.576 346.155,114.243 341.5,112C 339.226,109.927 337.226,107.593 335.5,105C 332.433,103.611 329.767,101.778 327.5,99.5 Z"/></g>
<g><path style="opacity:0.271" fill="#3e5654" d="M 353.5,111.5 C 356.923,111.124 359.256,112.457 360.5,115.5C 360.265,116.097 359.765,116.43 359,116.5C 356.727,115.148 354.894,113.481 353.5,111.5 Z"/></g>
<g><path style="opacity:0.01" fill="#000033" d="M 211.5,118.5 C 212.833,118.5 213.5,119.167 213.5,120.5C 213.5,119.167 212.833,118.5 211.5,118.5 Z"/></g>
<g><path style="opacity:0.204" fill="#4e7c75" d="M 364.5,118.5 C 367.374,119.097 369.708,120.431 371.5,122.5C 369.833,122.5 368.167,122.5 366.5,122.5C 365.833,121.167 365.167,119.833 364.5,118.5 Z"/></g>
<g><path style="opacity:0.455" fill="#705ea8" d="M 174.5,101.5 C 178.698,102.267 182.698,103.6 186.5,105.5C 193.809,109.492 201.476,112.826 209.5,115.5C 209.285,117.179 209.952,118.179 211.5,118.5C 211.5,119.833 212.167,120.5 213.5,120.5C 216.629,121.565 219.629,122.898 222.5,124.5C 222.833,125.167 223.167,125.833 223.5,126.5C 223.5,127.5 223.5,128.5 223.5,129.5C 221.337,127.917 219.004,126.584 216.5,125.5C 203.343,118.087 190.01,110.92 176.5,104C 175.619,103.292 174.953,102.458 174.5,101.5 Z"/></g>
<g><path style="opacity:0.122" fill="#4c6e6d" d="M 224.5,118.5 C 225.473,120.948 225.806,123.615 225.5,126.5C 224.833,126.5 224.167,126.5 223.5,126.5C 223.167,125.833 222.833,125.167 222.5,124.5C 222.025,121.918 222.692,119.918 224.5,118.5 Z"/></g>
<g><path style="opacity:1" fill="#815bf7" d="M 204.5,125.5 C 204.811,126.478 205.478,127.145 206.5,127.5C 208.316,126.265 209.983,126.265 211.5,127.5C 209.353,128.932 209.02,130.765 210.5,133C 207.667,133.167 206.167,134.667 206,137.5C 205.399,143.84 204.733,150.174 204,156.5C 203.824,195.029 203.324,233.529 202.5,272C 203.223,282.354 204.057,292.854 205,303.5C 206.046,305.09 207.213,306.59 208.5,308C 211.482,308.498 214.482,308.665 217.5,308.5C 218.622,310.288 218.789,312.288 218,314.5C 215.325,316.446 212.492,318.113 209.5,319.5C 208.232,318.572 206.899,318.405 205.5,319C 201.587,321.412 199.587,324.912 199.5,329.5C 187.531,334.98 176.198,341.48 165.5,349C 163.35,350.411 161.016,351.245 158.5,351.5C 160.757,349.589 163.09,347.589 165.5,345.5C 166.957,343.758 168.124,341.758 169,339.5C 170.865,341.855 173.031,342.022 175.5,340C 172.634,336.057 172.968,332.39 176.5,329C 173.899,326.456 172.899,323.29 173.5,319.5C 179.791,318.236 185.791,316.069 191.5,313C 192.059,312.275 192.392,311.442 192.5,310.5C 190.95,308.378 188.95,306.711 186.5,305.5C 182.197,307.495 177.863,309.161 173.5,310.5C 172.963,307.028 173.963,304.195 176.5,302C 180.19,301.922 183.69,302.756 187,304.5C 188.605,303.899 189.938,302.899 191,301.5C 191.579,243.789 191.579,186.123 191,128.5C 190.667,128.833 190.333,129.167 190,129.5C 188.316,127.934 186.316,126.934 184,126.5C 180.895,127.367 177.728,127.701 174.5,127.5C 175.069,123.748 177.069,120.915 180.5,119C 183.43,118.394 186.263,117.56 189,116.5C 188.145,118.615 187.645,120.948 187.5,123.5C 189.912,123.244 191.579,124.244 192.5,126.5C 194.513,125.404 196.346,125.737 198,127.5C 199.921,125.997 202.088,125.331 204.5,125.5 Z"/></g>
<g><path style="opacity:1" fill="#7ff4e3" d="M 387.5,136.5 C 387.918,137.222 388.584,137.722 389.5,138C 388.426,138.739 387.759,139.739 387.5,141C 388.035,142.537 388.368,144.037 388.5,145.5C 393.177,143.294 397.51,143.794 401.5,147C 400.359,147.741 400.359,148.575 401.5,149.5C 399.639,150.528 398.305,152.028 397.5,154C 395.833,154.667 394.167,154.667 392.5,154C 391.671,152.184 390.837,150.351 390,148.5C 388.842,148.998 388.009,149.831 387.5,151C 388.744,153.382 390.577,155.215 393,156.5C 393.483,157.448 393.649,158.448 393.5,159.5C 390.927,160.219 388.427,161.219 386,162.5C 385.219,163.944 385.386,165.277 386.5,166.5C 389.577,170.462 392.744,170.462 396,166.5C 396.825,164.299 396.325,162.466 394.5,161C 396.421,160.64 398.088,159.806 399.5,158.5C 401.01,160.322 402.343,162.322 403.5,164.5C 404.806,163.088 405.64,161.421 406,159.5C 406.692,160.025 407.192,160.692 407.5,161.5C 406.855,162.732 406.689,164.065 407,165.5C 404.602,165.958 402.936,167.292 402,169.5C 401.5,202.165 401.333,234.832 401.5,267.5C 394.528,267.279 392.862,270.113 396.5,276C 403.88,275.703 406.046,278.87 403,285.5C 400.07,287.066 396.903,287.9 393.5,288C 388.644,290.57 385.31,294.403 383.5,299.5C 388.758,300.687 393.758,300.687 398.5,299.5C 399.133,299.88 399.8,300.213 400.5,300.5C 398.851,301.648 397.351,302.981 396,304.5C 395.667,304.167 395.333,303.833 395,303.5C 393.306,305.24 392.139,307.24 391.5,309.5C 387.099,313.034 382.099,315.534 376.5,317C 372.812,322.181 367.812,325.347 361.5,326.5C 360.119,327.881 358.785,329.215 357.5,330.5C 357.167,331.5 356.5,332.167 355.5,332.5C 348.593,334.185 342.093,336.851 336,340.5C 334.287,339.863 334.121,338.863 335.5,337.5C 336.85,336.05 338.516,335.383 340.5,335.5C 342.139,313.541 342.806,291.541 342.5,269.5C 341.167,269.5 339.833,269.5 338.5,269.5C 338.5,266.833 338.5,264.167 338.5,261.5C 346.064,262.91 348.564,259.91 346,252.5C 345.29,251.027 344.124,250.36 342.5,250.5C 342.34,254.236 341.507,254.236 340,250.5C 339.5,251.667 338.667,252.5 337.5,253C 338.694,255.658 337.694,256.824 334.5,256.5C 335.461,253.574 336.127,250.574 336.5,247.5C 337.742,245.75 339.242,244.083 341,242.5C 341.503,237.81 342.17,233.143 343,228.5C 348.33,223.476 348.997,217.809 345,211.5C 343.887,210.289 342.72,210.289 341.5,211.5C 339.829,207.988 338.662,204.321 338,200.5C 336.887,199.695 335.721,199.028 334.5,198.5C 333.114,193.733 330.28,190.066 326,187.5C 324.998,182.337 322.165,178.503 317.5,176C 318.93,174.56 320.597,174.226 322.5,175C 324.376,176.375 326.376,177.542 328.5,178.5C 329.73,182.715 330.897,183.048 332,179.5C 333.995,181.747 336.495,182.747 339.5,182.5C 339.461,180.641 340.294,179.308 342,178.5C 342.741,175.438 342.575,172.438 341.5,169.5C 342.145,167.568 343.479,166.401 345.5,166C 344.552,165.517 343.552,165.351 342.5,165.5C 342.55,153.32 342.55,141.32 342.5,129.5C 343.015,127.775 343.682,126.108 344.5,124.5C 347.453,125.63 350.286,126.964 353,128.5C 354.395,127.185 355.395,127.519 356,129.5C 356.914,128.346 357.747,128.513 358.5,130C 357.476,131.367 357.976,132.2 360,132.5C 362.242,132.391 364.409,132.058 366.5,131.5C 373.564,132.95 380.564,134.617 387.5,136.5 Z"/></g>
<g><path style="opacity:1" fill="#7e5afa" d="M 151.5,91.5 C 155.079,92.3802 158.413,93.8802 161.5,96C 163.461,98.9628 165.794,101.629 168.5,104C 174.862,104.777 180.196,107.443 184.5,112C 186.218,112.346 187.885,112.846 189.5,113.5C 194.519,117.524 199.519,121.524 204.5,125.5C 202.088,125.331 199.921,125.997 198,127.5C 196.346,125.737 194.513,125.404 192.5,126.5C 191.579,124.244 189.912,123.244 187.5,123.5C 187.645,120.948 188.145,118.615 189,116.5C 186.263,117.56 183.43,118.394 180.5,119C 177.069,120.915 175.069,123.748 174.5,127.5C 177.728,127.701 180.895,127.367 184,126.5C 186.316,126.934 188.316,127.934 190,129.5C 190.333,129.167 190.667,128.833 191,128.5C 191.579,186.123 191.579,243.789 191,301.5C 189.938,302.899 188.605,303.899 187,304.5C 183.69,302.756 180.19,301.922 176.5,302C 173.963,304.195 172.963,307.028 173.5,310.5C 177.863,309.161 182.197,307.495 186.5,305.5C 188.95,306.711 190.95,308.378 192.5,310.5C 192.392,311.442 192.059,312.275 191.5,313C 185.791,316.069 179.791,318.236 173.5,319.5C 172.899,323.29 173.899,326.456 176.5,329C 172.968,332.39 172.634,336.057 175.5,340C 173.031,342.022 170.865,341.855 169,339.5C 168.124,341.758 166.957,343.758 165.5,345.5C 165.423,344.25 164.756,343.417 163.5,343C 159.424,342.002 155.424,341.835 151.5,342.5C 151.5,341.167 151.5,339.833 151.5,338.5C 156.167,338.167 160.833,337.833 165.5,337.5C 165.833,269.497 165.5,201.497 164.5,133.5C 163.319,132.485 162.319,131.319 161.5,130C 164.959,125.849 166.293,121.016 165.5,115.5C 167.346,115.778 168.68,115.111 169.5,113.5C 165.884,111.802 164.718,109.135 166,105.5C 164.795,104.929 163.628,104.262 162.5,103.5C 161.894,101.291 161.227,99.124 160.5,97C 156.768,96.1446 153.768,94.3113 151.5,91.5 Z"/></g>
<g><path style="opacity:0.996" fill="#8cd4c9" d="M 366.5,122.5 C 368.167,122.5 369.833,122.5 371.5,122.5C 374.167,123.833 376.833,125.167 379.5,126.5C 379.5,127.5 379.5,128.5 379.5,129.5C 382.172,129.948 384.172,131.281 385.5,133.5C 381.671,131.836 377.671,130.669 373.5,130C 371.549,128.266 370.549,126.099 370.5,123.5C 368.901,123.768 367.568,123.434 366.5,122.5 Z"/></g>
<g><path style="opacity:1" fill="#6148ee" d="M 73.5,111.5 C 72.1827,184.489 72.1827,257.489 73.5,330.5C 72.6862,328.369 72.1862,326.036 72,323.5C 71.5,253.834 71.3333,184.167 71.5,114.5C 71.9321,113.29 72.5987,112.29 73.5,111.5 Z"/></g>
<g><path style="opacity:0.903" fill="#6953e3" d="M 70.5,114.5 C 70.8333,114.5 71.1667,114.5 71.5,114.5C 71.3333,184.167 71.5,253.834 72,323.5C 72.1862,326.036 72.6862,328.369 73.5,330.5C 73.5,332.5 73.5,334.5 73.5,336.5C 74.172,337.267 75.0053,337.934 76,338.5C 76.3629,341.544 76.8629,344.544 77.5,347.5C 76.8826,347.389 76.3826,347.056 76,346.5C 76.1923,342.519 74.6923,339.519 71.5,337.5C 70.5052,332.208 70.1718,326.875 70.5,321.5C 70.5,255.167 70.5,188.833 70.5,122.5C 70.5,119.833 70.5,117.167 70.5,114.5 Z"/></g>
<g><path style="opacity:0.412" fill="#6c9d97" d="M 379.5,126.5 C 382.31,127.48 384.976,128.813 387.5,130.5C 388.386,131.325 388.719,132.325 388.5,133.5C 390.483,133.157 391.817,133.824 392.5,135.5C 390.833,135.5 389.167,135.5 387.5,135.5C 386.833,134.833 386.167,134.167 385.5,133.5C 384.172,131.281 382.172,129.948 379.5,129.5C 379.5,128.5 379.5,127.5 379.5,126.5 Z"/></g>
<g><path style="opacity:1" fill="#50caf1" d="M 225.5,127.5 C 226.167,127.5 226.833,127.5 227.5,127.5C 227.833,127.5 228.167,127.5 228.5,127.5C 228.5,128.167 228.5,128.833 228.5,129.5C 228.162,132.157 228.829,134.49 230.5,136.5C 239.358,138.335 246.692,142.502 252.5,149C 258.961,151.061 264.627,154.394 269.5,159C 271.9,159.186 274.234,159.686 276.5,160.5C 276.863,161.183 277.196,161.85 277.5,162.5C 270.492,162.006 264.159,159.84 258.5,156C 256.866,155.506 255.199,155.34 253.5,155.5C 253.5,157.833 253.5,160.167 253.5,162.5C 255.527,162.338 257.527,162.505 259.5,163C 260.337,164.011 260.67,165.178 260.5,166.5C 261.833,166.5 263.167,166.5 264.5,166.5C 265.205,192.514 265.539,218.514 265.5,244.5C 265.095,252.173 264.595,259.839 264,267.5C 263.5,268 263,268.5 262.5,269C 259.833,269.333 257.167,269.667 254.5,270C 253.167,271.333 253.167,272.667 254.5,274C 258.723,274.188 262.723,275.021 266.5,276.5C 266.393,278.903 267.393,280.736 269.5,282C 272.168,282.567 274.834,283.067 277.5,283.5C 275.458,285.83 272.792,286.996 269.5,287C 269.833,287.333 270.167,287.667 270.5,288C 263.62,292.183 256.287,295.516 248.5,298C 245.279,301.221 242.113,304.387 239,307.5C 237.647,306.315 236.48,304.981 235.5,303.5C 235.167,303.667 234.833,303.833 234.5,304C 233.972,307.049 232.972,309.882 231.5,312.5C 230.5,312.5 229.5,312.5 228.5,312.5C 228.5,313.833 228.5,315.167 228.5,316.5C 227.5,316.833 226.833,317.5 226.5,318.5C 226.167,318.5 225.833,318.5 225.5,318.5C 225.5,318.167 225.5,317.833 225.5,317.5C 225.5,317.167 225.5,316.833 225.5,316.5C 226.117,316.389 226.617,316.056 227,315.5C 227.167,290.333 227.333,265.167 227.5,240C 227.68,202.988 227.013,166.154 225.5,129.5C 225.5,128.833 225.5,128.167 225.5,127.5 Z"/></g>
<g><path style="opacity:0.251" fill="#608882" d="M 394.5,135.5 C 396.322,135.831 397.989,136.498 399.5,137.5C 399.5,138.167 399.5,138.833 399.5,139.5C 396.412,139.803 394.746,138.47 394.5,135.5 Z"/></g>
<g><path style="opacity:0.007" fill="#002423" d="M 399.5,137.5 C 400.833,137.5 401.5,138.167 401.5,139.5C 400.833,139.5 400.167,139.5 399.5,139.5C 399.5,138.833 399.5,138.167 399.5,137.5 Z"/></g>
<g><path style="opacity:0.125" fill="#5d8c84" d="M 404.5,141.5 C 406.179,141.285 407.179,141.952 407.5,143.5C 406.791,144.404 405.791,144.737 404.5,144.5C 404.5,143.5 404.5,142.5 404.5,141.5 Z"/></g>
<g><path style="opacity:0.031" fill="#274f47" d="M 409.5,143.5 C 411.5,143.5 412.5,144.5 412.5,146.5C 411.5,146.5 410.5,146.5 409.5,146.5C 409.5,145.5 409.5,144.5 409.5,143.5 Z"/></g>
<g><path style="opacity:0.957" fill="#94d7ca" d="M 387.5,136.5 C 387.5,136.167 387.5,135.833 387.5,135.5C 389.167,135.5 390.833,135.5 392.5,135.5C 393.167,135.5 393.833,135.5 394.5,135.5C 394.746,138.47 396.412,139.803 399.5,139.5C 400.167,139.5 400.833,139.5 401.5,139.5C 402.778,139.782 403.778,140.449 404.5,141.5C 404.5,142.5 404.5,143.5 404.5,144.5C 405.791,144.737 406.791,144.404 407.5,143.5C 408.167,143.5 408.833,143.5 409.5,143.5C 409.5,144.5 409.5,145.5 409.5,146.5C 410.5,146.5 411.5,146.5 412.5,146.5C 413.778,146.782 414.778,147.449 415.5,148.5C 415.5,149.5 415.5,150.5 415.5,151.5C 420.182,153.169 424.849,154.836 429.5,156.5C 430.167,156.5 430.833,156.5 431.5,156.5C 431.831,158.322 432.498,159.989 433.5,161.5C 427.487,158.997 421.487,156.164 415.5,153C 412.198,151.018 409.198,148.685 406.5,146C 400.434,142.363 394.101,139.196 387.5,136.5 Z"/></g>
<g><path style="opacity:1" fill="#8153ee" d="M 211.5,127.5 C 213.379,128.341 215.379,128.675 217.5,128.5C 217.833,129.167 218.167,129.833 218.5,130.5C 219.353,141.169 219.019,151.836 217.5,162.5C 215.827,160.914 213.827,160.247 211.5,160.5C 210.213,163.43 210.713,165.763 213,167.5C 213.333,207.167 213.667,246.833 214,286.5C 214.415,293.989 215.582,301.322 217.5,308.5C 214.482,308.665 211.482,308.498 208.5,308C 207.213,306.59 206.046,305.09 205,303.5C 204.057,292.854 203.223,282.354 202.5,272C 203.324,233.529 203.824,195.029 204,156.5C 204.733,150.174 205.399,143.84 206,137.5C 206.167,134.667 207.667,133.167 210.5,133C 209.02,130.765 209.353,128.932 211.5,127.5 Z"/></g>
<g><path style="opacity:1" fill="#88f6e3" d="M 387.5,136.5 C 394.101,139.196 400.434,142.363 406.5,146C 409.198,148.685 412.198,151.018 415.5,153C 421.487,156.164 427.487,158.997 433.5,161.5C 435.167,161.5 436.833,161.5 438.5,161.5C 441.004,162.584 443.337,163.917 445.5,165.5C 445.5,166.5 445.5,167.5 445.5,168.5C 448.908,169.372 451.908,171.039 454.5,173.5C 456.045,174.452 457.712,174.785 459.5,174.5C 462.042,175.6 464.375,176.933 466.5,178.5C 466.5,179.5 466.5,180.5 466.5,181.5C 471.557,182.649 475.557,185.316 478.5,189.5C 475.322,188.656 472.655,186.989 470.5,184.5C 465.447,182.073 460.447,179.573 455.5,177C 453.167,176.667 450.833,176.333 448.5,176C 445.009,174.63 441.675,173.13 438.5,171.5C 437.335,166.08 434.002,163.914 428.5,165C 423.792,168.543 419.625,172.709 416,177.5C 415.333,179.5 415.333,181.5 416,183.5C 417.594,184.716 419.094,186.049 420.5,187.5C 422.817,185.684 424.984,183.684 427,181.5C 427.414,181.957 427.914,182.291 428.5,182.5C 430.662,180.98 432.995,179.98 435.5,179.5C 435.5,180.833 435.5,182.167 435.5,183.5C 436.978,183.238 438.311,183.571 439.5,184.5C 440.393,187.084 440.726,189.751 440.5,192.5C 436.486,192.334 432.486,192.501 428.5,193C 426.442,195.445 423.942,197.278 421,198.5C 419.697,221.437 419.031,244.437 419,267.5C 416.903,268.991 414.57,269.991 412,270.5C 410.882,272.765 410.049,275.099 409.5,277.5C 412.421,277.854 414.754,276.854 416.5,274.5C 417.287,275.242 417.953,276.075 418.5,277C 417.426,277.739 416.759,278.739 416.5,280C 420.399,282.787 420.399,285.62 416.5,288.5C 413.655,288.833 411.155,289.833 409,291.5C 407.887,290.24 407.72,289.073 408.5,288C 407.216,287.316 406.049,287.483 405,288.5C 404.667,287.833 404.333,287.167 404,286.5C 401.086,288.63 400.253,291.296 401.5,294.5C 400.753,294.736 399.92,295.07 399,295.5C 399.355,296.959 399.189,298.293 398.5,299.5C 393.758,300.687 388.758,300.687 383.5,299.5C 385.31,294.403 388.644,290.57 393.5,288C 396.903,287.9 400.07,287.066 403,285.5C 406.046,278.87 403.88,275.703 396.5,276C 392.862,270.113 394.528,267.279 401.5,267.5C 401.333,234.832 401.5,202.165 402,169.5C 402.936,167.292 404.602,165.958 407,165.5C 406.689,164.065 406.855,162.732 407.5,161.5C 407.192,160.692 406.692,160.025 406,159.5C 405.64,161.421 404.806,163.088 403.5,164.5C 402.343,162.322 401.01,160.322 399.5,158.5C 398.088,159.806 396.421,160.64 394.5,161C 396.325,162.466 396.825,164.299 396,166.5C 392.744,170.462 389.577,170.462 386.5,166.5C 385.386,165.277 385.219,163.944 386,162.5C 388.427,161.219 390.927,160.219 393.5,159.5C 393.649,158.448 393.483,157.448 393,156.5C 390.577,155.215 388.744,153.382 387.5,151C 388.009,149.831 388.842,148.998 390,148.5C 390.837,150.351 391.671,152.184 392.5,154C 394.167,154.667 395.833,154.667 397.5,154C 398.305,152.028 399.639,150.528 401.5,149.5C 400.359,148.575 400.359,147.741 401.5,147C 397.51,143.794 393.177,143.294 388.5,145.5C 388.368,144.037 388.035,142.537 387.5,141C 387.759,139.739 388.426,138.739 389.5,138C 388.584,137.722 387.918,137.222 387.5,136.5 Z"/></g>
<g><path style="opacity:0.147" fill="#6b9c92" d="M 415.5,148.5 C 419.25,149.7 422.917,151.2 426.5,153C 428.063,153.759 429.063,154.926 429.5,156.5C 424.849,154.836 420.182,153.169 415.5,151.5C 415.5,150.5 415.5,149.5 415.5,148.5 Z"/></g>
<g><path style="opacity:1" fill="#6ee9ec" d="M 228.5,127.5 C 230.283,128.114 231.616,129.28 232.5,131C 236.561,130.696 239.727,132.196 242,135.5C 242.333,135.167 242.667,134.833 243,134.5C 245.966,136.034 249.133,137.2 252.5,138C 258.074,144.454 265.074,148.287 273.5,149.5C 273.281,150.675 273.614,151.675 274.5,152.5C 276.955,154.297 279.622,155.63 282.5,156.5C 287.057,156.628 291.057,157.961 294.5,160.5C 294.954,164.436 297.288,166.603 301.5,167C 304.256,170.427 307.59,173.093 311.5,175C 312.267,176.47 312.933,177.97 313.5,179.5C 307.156,177.09 301.156,174.09 295.5,170.5C 289.287,167.238 283.287,163.405 277.5,159C 272.053,157.221 267.386,154.221 263.5,150C 256.135,145.445 248.469,141.612 240.5,138.5C 239.081,135.582 236.748,134.082 233.5,134C 231.963,132.293 230.296,130.793 228.5,129.5C 228.5,128.833 228.5,128.167 228.5,127.5 Z"/></g>
<g><path style="opacity:1" fill="#55cee7" d="M 228.5,129.5 C 230.296,130.793 231.963,132.293 233.5,134C 236.748,134.082 239.081,135.582 240.5,138.5C 248.469,141.612 256.135,145.445 263.5,150C 267.386,154.221 272.053,157.221 277.5,159C 283.287,163.405 289.287,167.238 295.5,170.5C 290.293,169.556 285.293,168.056 280.5,166C 278.937,165.241 277.937,164.074 277.5,162.5C 277.196,161.85 276.863,161.183 276.5,160.5C 274.234,159.686 271.9,159.186 269.5,159C 264.627,154.394 258.961,151.061 252.5,149C 246.692,142.502 239.358,138.335 230.5,136.5C 228.829,134.49 228.162,132.157 228.5,129.5 Z"/></g>
<g><path style="opacity:1" fill="#4cc5f1" d="M 277.5,162.5 C 277.937,164.074 278.937,165.241 280.5,166C 285.293,168.056 290.293,169.556 295.5,170.5C 297.263,174.099 299.93,176.932 303.5,179C 305.5,179.333 307.5,179.667 309.5,180C 316.79,185.141 323.457,190.975 329.5,197.5C 332.451,202.975 334.951,208.642 337,214.5C 337.5,221.492 337.666,228.492 337.5,235.5C 337.5,235.833 337.5,236.167 337.5,236.5C 336.833,236.833 336.167,237.167 335.5,237.5C 331.256,245.933 325.589,253.433 318.5,260C 314.612,261.378 310.612,262.378 306.5,263C 305.257,264.154 304.257,265.488 303.5,267C 299.681,267.827 296.681,269.827 294.5,273C 287.404,274.278 281.737,277.778 277.5,283.5C 274.834,283.067 272.168,282.567 269.5,282C 267.393,280.736 266.393,278.903 266.5,276.5C 262.723,275.021 258.723,274.188 254.5,274C 253.167,272.667 253.167,271.333 254.5,270C 257.167,269.667 259.833,269.333 262.5,269C 263,268.5 263.5,268 264,267.5C 264.595,259.839 265.095,252.173 265.5,244.5C 265.539,218.514 265.205,192.514 264.5,166.5C 263.167,166.5 261.833,166.5 260.5,166.5C 260.67,165.178 260.337,164.011 259.5,163C 257.527,162.505 255.527,162.338 253.5,162.5C 253.5,160.167 253.5,157.833 253.5,155.5C 255.199,155.34 256.866,155.506 258.5,156C 264.159,159.84 270.492,162.006 277.5,162.5 Z"/></g>
<g><path style="opacity:0.145" fill="#5e847f" d="M 431.5,156.5 C 433.374,157.63 435.374,158.63 437.5,159.5C 438.298,159.957 438.631,160.624 438.5,161.5C 436.833,161.5 435.167,161.5 433.5,161.5C 432.498,159.989 431.831,158.322 431.5,156.5 Z"/></g>
<g><path style="opacity:1" fill="#6565d8" d="M 216.5,125.5 C 219.004,126.584 221.337,127.917 223.5,129.5C 223.833,191.837 223.5,254.17 222.5,316.5C 221.145,317.188 220.145,318.188 219.5,319.5C 218.833,319.5 218.167,319.5 217.5,319.5C 218.167,318.5 218.833,317.5 219.5,316.5C 220.458,316.047 221.292,315.381 222,314.5C 222.667,254.167 222.667,193.833 222,133.5C 221.688,130.691 220.188,129.024 217.5,128.5C 216.89,127.609 216.557,126.609 216.5,125.5 Z"/></g>
<g><path style="opacity:1" fill="#7b52e4" d="M 218.5,130.5 C 219.117,130.611 219.617,130.944 220,131.5C 220.167,137.333 220.333,143.167 220.5,149C 219.548,204.902 219.215,260.735 219.5,316.5C 218.833,317.5 218.167,318.5 217.5,319.5C 211.239,322.443 205.239,325.776 199.5,329.5C 199.587,324.912 201.587,321.412 205.5,319C 206.899,318.405 208.232,318.572 209.5,319.5C 212.492,318.113 215.325,316.446 218,314.5C 218.789,312.288 218.622,310.288 217.5,308.5C 215.582,301.322 214.415,293.989 214,286.5C 213.667,246.833 213.333,207.167 213,167.5C 210.713,165.763 210.213,163.43 211.5,160.5C 213.827,160.247 215.827,160.914 217.5,162.5C 219.019,151.836 219.353,141.169 218.5,130.5 Z"/></g>
<g><path style="opacity:1" fill="#6d81e8" d="M 223.5,129.5 C 224.499,191.998 224.832,254.664 224.5,317.5C 222.833,318.167 221.167,318.833 219.5,319.5C 220.145,318.188 221.145,317.188 222.5,316.5C 223.5,254.17 223.833,191.837 223.5,129.5 Z"/></g>
<g><path style="opacity:1" fill="#6f55da" d="M 217.5,128.5 C 220.188,129.024 221.688,130.691 222,133.5C 222.667,193.833 222.667,254.167 222,314.5C 221.292,315.381 220.458,316.047 219.5,316.5C 219.215,260.735 219.548,204.902 220.5,149C 220.333,143.167 220.167,137.333 220,131.5C 219.617,130.944 219.117,130.611 218.5,130.5C 218.167,129.833 217.833,129.167 217.5,128.5 Z"/></g>
<g><path style="opacity:1" fill="#66bafb" d="M 225.5,129.5 C 227.013,166.154 227.68,202.988 227.5,240C 227.333,265.167 227.167,290.333 227,315.5C 226.617,316.056 226.117,316.389 225.5,316.5C 225.5,254.167 225.5,191.833 225.5,129.5 Z"/></g>
<g><path style="opacity:1" fill="#759ef7" d="M 223.5,126.5 C 224.167,126.5 224.833,126.5 225.5,126.5C 225.5,126.833 225.5,127.167 225.5,127.5C 225.5,128.167 225.5,128.833 225.5,129.5C 225.5,191.833 225.5,254.167 225.5,316.5C 225.5,316.833 225.5,317.167 225.5,317.5C 225.167,317.5 224.833,317.5 224.5,317.5C 224.832,254.664 224.499,191.998 223.5,129.5C 223.5,128.5 223.5,127.5 223.5,126.5 Z"/></g>
<g><path style="opacity:1" fill="#8afae3" d="M 470.5,184.5 C 469.962,186.117 469.629,187.784 469.5,189.5C 471.681,189.284 473.347,190.117 474.5,192C 473.273,194.27 471.606,196.103 469.5,197.5C 470.167,198.5 470.833,199.5 471.5,200.5C 469.252,201.324 469.086,202.324 471,203.5C 471.667,213.167 471.667,222.833 471,232.5C 466.995,232.982 465.828,234.982 467.5,238.5C 474.382,240.058 479.049,244.058 481.5,250.5C 479.325,250.318 477.325,249.651 475.5,248.5C 474.558,248.608 473.725,248.941 473,249.5C 470.787,248.198 468.454,247.198 466,246.5C 464.731,247.905 464.231,249.571 464.5,251.5C 473.046,250.252 475.546,253.586 472,261.5C 468.119,263.272 464.953,262.439 462.5,259C 462.5,257.667 462.5,256.333 462.5,255C 458.625,254.609 455.958,256.276 454.5,260C 455.319,261.319 456.319,262.485 457.5,263.5C 460.207,262.655 461.874,263.821 462.5,267C 460.9,268.748 458.9,269.915 456.5,270.5C 455.147,271.524 454.48,272.857 454.5,274.5C 450.076,276.213 445.409,276.88 440.5,276.5C 440.762,277.978 440.429,279.311 439.5,280.5C 438.167,281.167 437.167,282.167 436.5,283.5C 433.839,284.499 431.172,285.499 428.5,286.5C 427.614,287.325 427.281,288.325 427.5,289.5C 423.326,289.659 419.992,291.325 417.5,294.5C 411.363,296.314 406.029,299.481 401.5,304C 397.836,305.375 394.503,307.208 391.5,309.5C 392.139,307.24 393.306,305.24 395,303.5C 395.333,303.833 395.667,304.167 396,304.5C 397.351,302.981 398.851,301.648 400.5,300.5C 399.8,300.213 399.133,299.88 398.5,299.5C 399.189,298.293 399.355,296.959 399,295.5C 399.92,295.07 400.753,294.736 401.5,294.5C 400.253,291.296 401.086,288.63 404,286.5C 404.333,287.167 404.667,287.833 405,288.5C 406.049,287.483 407.216,287.316 408.5,288C 407.72,289.073 407.887,290.24 409,291.5C 411.155,289.833 413.655,288.833 416.5,288.5C 420.399,285.62 420.399,282.787 416.5,280C 416.759,278.739 417.426,277.739 418.5,277C 417.953,276.075 417.287,275.242 416.5,274.5C 414.754,276.854 412.421,277.854 409.5,277.5C 410.049,275.099 410.882,272.765 412,270.5C 414.57,269.991 416.903,268.991 419,267.5C 419.031,244.437 419.697,221.437 421,198.5C 423.942,197.278 426.442,195.445 428.5,193C 432.486,192.501 436.486,192.334 440.5,192.5C 440.726,189.751 440.393,187.084 439.5,184.5C 438.311,183.571 436.978,183.238 435.5,183.5C 435.5,182.167 435.5,180.833 435.5,179.5C 432.995,179.98 430.662,180.98 428.5,182.5C 427.914,182.291 427.414,181.957 427,181.5C 424.984,183.684 422.817,185.684 420.5,187.5C 419.094,186.049 417.594,184.716 416,183.5C 415.333,181.5 415.333,179.5 416,177.5C 419.625,172.709 423.792,168.543 428.5,165C 434.002,163.914 437.335,166.08 438.5,171.5C 441.675,173.13 445.009,174.63 448.5,176C 450.833,176.333 453.167,176.667 455.5,177C 460.447,179.573 465.447,182.073 470.5,184.5 Z"/></g>
<g><path style="opacity:0.608" fill="#75aea1" d="M 445.5,165.5 C 447.798,166.31 450.132,167.144 452.5,168C 454.234,169.734 456.234,171.068 458.5,172C 459.252,172.671 459.586,173.504 459.5,174.5C 457.712,174.785 456.045,174.452 454.5,173.5C 451.908,171.039 448.908,169.372 445.5,168.5C 445.5,167.5 445.5,166.5 445.5,165.5 Z"/></g>
<g><path style="opacity:0.023" fill="#192625" d="M 472.5,180.5 C 473.833,180.5 474.5,181.167 474.5,182.5C 474.5,181.167 473.833,180.5 472.5,180.5 Z"/></g>
<g><path style="opacity:1" fill="#58d0e6" d="M 295.5,170.5 C 301.156,174.09 307.156,177.09 313.5,179.5C 319.912,184.577 325.245,190.577 329.5,197.5C 323.457,190.975 316.79,185.141 309.5,180C 307.5,179.667 305.5,179.333 303.5,179C 299.93,176.932 297.263,174.099 295.5,170.5 Z"/></g>
<g><path style="opacity:0.096" fill="#5c8178" d="M 466.5,178.5 C 468.718,178.614 470.718,179.28 472.5,180.5C 472.5,181.833 473.167,182.5 474.5,182.5C 479.167,185.167 482.833,188.833 485.5,193.5C 485.5,194.833 486.167,195.5 487.5,195.5C 488.167,196.833 488.833,198.167 489.5,199.5C 489.5,199.833 489.5,200.167 489.5,200.5C 488.325,200.719 487.325,200.386 486.5,199.5C 484.864,195.212 482.197,191.879 478.5,189.5C 475.557,185.316 471.557,182.649 466.5,181.5C 466.5,180.5 466.5,179.5 466.5,178.5 Z"/></g>
<g><path style="opacity:1" fill="#93f9e2" d="M 470.5,184.5 C 472.655,186.989 475.322,188.656 478.5,189.5C 482.197,191.879 484.864,195.212 486.5,199.5C 487.325,200.386 488.325,200.719 489.5,200.5C 489.5,201.167 489.5,201.833 489.5,202.5C 490.502,204.011 491.169,205.678 491.5,207.5C 493.26,212.808 494.26,218.308 494.5,224C 493.191,231.942 491.524,239.775 489.5,247.5C 489.5,247.833 489.5,248.167 489.5,248.5C 488.325,248.281 487.325,248.614 486.5,249.5C 481.324,256.175 475.324,262.009 468.5,267C 467.167,267.333 465.833,267.667 464.5,268C 463.748,268.671 463.414,269.504 463.5,270.5C 459.943,273.576 455.943,275.91 451.5,277.5C 446.189,279.152 441.522,281.819 437.5,285.5C 437.5,286.5 437.5,287.5 437.5,288.5C 436.833,288.5 436.167,288.5 435.5,288.5C 435.083,287.876 434.416,287.543 433.5,287.5C 431.664,288.396 429.997,289.396 428.5,290.5C 424.49,291.092 420.823,292.425 417.5,294.5C 419.992,291.325 423.326,289.659 427.5,289.5C 427.281,288.325 427.614,287.325 428.5,286.5C 431.172,285.499 433.839,284.499 436.5,283.5C 437.167,282.167 438.167,281.167 439.5,280.5C 440.429,279.311 440.762,277.978 440.5,276.5C 445.409,276.88 450.076,276.213 454.5,274.5C 454.48,272.857 455.147,271.524 456.5,270.5C 458.9,269.915 460.9,268.748 462.5,267C 461.874,263.821 460.207,262.655 457.5,263.5C 456.319,262.485 455.319,261.319 454.5,260C 455.958,256.276 458.625,254.609 462.5,255C 462.5,256.333 462.5,257.667 462.5,259C 464.953,262.439 468.119,263.272 472,261.5C 475.546,253.586 473.046,250.252 464.5,251.5C 464.231,249.571 464.731,247.905 466,246.5C 468.454,247.198 470.787,248.198 473,249.5C 473.725,248.941 474.558,248.608 475.5,248.5C 477.325,249.651 479.325,250.318 481.5,250.5C 479.049,244.058 474.382,240.058 467.5,238.5C 465.828,234.982 466.995,232.982 471,232.5C 471.667,222.833 471.667,213.167 471,203.5C 469.086,202.324 469.252,201.324 471.5,200.5C 470.833,199.5 470.167,198.5 469.5,197.5C 471.606,196.103 473.273,194.27 474.5,192C 473.347,190.117 471.681,189.284 469.5,189.5C 469.629,187.784 469.962,186.117 470.5,184.5 Z"/></g>
<g><path style="opacity:0.023" fill="#193325" d="M 485.5,193.5 C 486.833,193.5 487.5,194.167 487.5,195.5C 487.5,194.167 486.833,193.5 485.5,193.5 Z"/></g>
<g><path style="opacity:0.037" fill="#1a3e34" d="M 489.5,199.5 C 491.144,199.81 492.144,200.81 492.5,202.5C 491.5,202.5 490.5,202.5 489.5,202.5C 489.5,201.833 489.5,201.167 489.5,200.5C 489.5,200.167 489.5,199.833 489.5,199.5 Z"/></g>
<g><path style="opacity:1" fill="#4ac1f4" d="M 335.5,237.5 C 332.91,238.128 330.577,239.295 328.5,241C 328.957,241.414 329.291,241.914 329.5,242.5C 326.535,248.65 322.535,254.15 317.5,259C 313.984,261.057 310.984,260.391 308.5,257C 304.373,257.47 300.539,258.97 297,261.5C 296.317,269.32 295.484,269.32 294.5,261.5C 291.266,261.237 289.932,262.737 290.5,266C 290.61,268.255 291.61,269.922 293.5,271C 290.543,273.121 287.876,272.954 285.5,270.5C 287.001,267.537 287.667,264.37 287.5,261C 287.074,257.144 286.907,253.311 287,249.5C 289.382,248.446 291.882,247.779 294.5,247.5C 294.33,246.178 294.663,245.011 295.5,244C 297.81,243.503 300.143,243.337 302.5,243.5C 302.384,240.09 304.05,238.756 307.5,239.5C 307.5,238.167 307.5,236.833 307.5,235.5C 305.856,235.714 304.356,235.38 303,234.5C 302.333,223.833 302.333,213.167 303,202.5C 304.698,200.734 306.031,198.734 307,196.5C 308.117,196.665 309.284,196.998 310.5,197.5C 311.308,199.423 311.808,201.423 312,203.5C 313.356,202.62 314.856,202.286 316.5,202.5C 316.042,207.029 317.042,207.529 319.5,204C 318.164,200.476 315.997,197.643 313,195.5C 310.214,186.384 306.714,186.217 302.5,195C 297.845,195.499 293.179,195.666 288.5,195.5C 288.692,189.21 292.025,186.377 298.5,187C 299.337,185.989 299.67,184.822 299.5,183.5C 308.377,182.106 315.043,185.272 319.5,193C 322.47,193.763 324.97,195.263 327,197.5C 325.7,201.277 325.367,205.277 326,209.5C 327.729,211.434 329.729,211.434 332,209.5C 333.861,211.888 335.194,214.554 336,217.5C 336.756,224.217 336.589,230.883 335.5,237.5 Z"/></g>
<g><path style="opacity:0.232" fill="#6758b9" d="M 69.5,106.5 C 70.5,106.5 71.5,106.5 72.5,106.5C 71.36,109.025 70.6933,111.692 70.5,114.5C 70.5,117.167 70.5,119.833 70.5,122.5C 69.6753,126.647 69.1753,130.981 69,135.5C 68.8329,195.668 68.3329,255.668 67.5,315.5C 67.5,253.5 67.5,191.5 67.5,129.5C 67.0502,121.672 67.7169,114.006 69.5,106.5 Z"/></g>
<g><path style="opacity:1" fill="#73ecec" d="M 313.5,179.5 C 315.308,179.491 316.975,179.991 318.5,181C 323.756,187.081 329.089,192.914 334.5,198.5C 335.721,199.028 336.887,199.695 338,200.5C 338.662,204.321 339.829,207.988 341.5,211.5C 342.72,210.289 343.887,210.289 345,211.5C 348.997,217.809 348.33,223.476 343,228.5C 342.17,233.143 341.503,237.81 341,242.5C 339.242,244.083 337.742,245.75 336.5,247.5C 332.737,253.432 328.404,258.932 323.5,264C 323.735,264.873 324.069,265.707 324.5,266.5C 316.241,267.278 309.908,271.111 305.5,278C 302.216,279.125 298.883,280.125 295.5,281C 292.757,283.403 290.424,286.069 288.5,289C 285.413,289.259 282.413,289.759 279.5,290.5C 277.685,291.63 275.685,292.296 273.5,292.5C 273.548,295.292 272.215,297.125 269.5,298C 266.167,299 262.833,300 259.5,301C 256.43,304.997 252.596,306.83 248,306.5C 245.891,307.035 245.391,308.035 246.5,309.5C 246.023,310.478 245.357,311.311 244.5,312C 246.037,313.11 246.703,314.61 246.5,316.5C 245.07,316.421 243.736,316.754 242.5,317.5C 240.025,315.67 237.359,314.336 234.5,313.5C 232.258,314.091 230.258,315.091 228.5,316.5C 228.5,315.167 228.5,313.833 228.5,312.5C 229.5,312.5 230.5,312.5 231.5,312.5C 237.254,311.887 241.921,309.387 245.5,305C 252.291,301.55 259.291,298.55 266.5,296C 268.413,294.209 270.08,292.209 271.5,290C 281.186,284.966 290.853,279.966 300.5,275C 303.329,272.173 306.663,270.173 310.5,269C 311.743,267.846 312.743,266.512 313.5,265C 317.616,264.374 320.449,262.207 322,258.5C 328.907,252.338 334.074,245.005 337.5,236.5C 337.5,236.167 337.5,235.833 337.5,235.5C 339.922,227.704 340.089,219.704 338,211.5C 337.838,205.179 335.004,200.512 329.5,197.5C 325.245,190.577 319.912,184.577 313.5,179.5 Z"/></g>
<g><path style="opacity:0.065" fill="#537872" d="M 489.5,202.5 C 490.5,202.5 491.5,202.5 492.5,202.5C 493.502,204.011 494.169,205.678 494.5,207.5C 493.5,207.5 492.5,207.5 491.5,207.5C 491.169,205.678 490.502,204.011 489.5,202.5 Z"/></g>
<g><path style="opacity:0.053" fill="#322371" d="M 67.5,129.5 C 67.5,191.5 67.5,253.5 67.5,315.5C 67.5,316.167 67.5,316.833 67.5,317.5C 66.1668,286.674 65.5001,255.507 65.5,224C 65.6667,192.833 65.8333,161.667 66,130.5C 66.3826,129.944 66.8826,129.611 67.5,129.5 Z"/></g>
<g><path style="opacity:1" fill="#5acfe7" d="M 329.5,197.5 C 335.004,200.512 337.838,205.179 338,211.5C 340.089,219.704 339.922,227.704 337.5,235.5C 337.666,228.492 337.5,221.492 337,214.5C 334.951,208.642 332.451,202.975 329.5,197.5 Z"/></g>
<g><path style="opacity:0.484" fill="#92c4b7" d="M 491.5,207.5 C 492.5,207.5 493.5,207.5 494.5,207.5C 496.013,211.318 496.68,215.318 496.5,219.5C 496.5,222.833 496.5,226.167 496.5,229.5C 496.817,232.572 496.484,235.572 495.5,238.5C 494.056,241.055 492.889,243.721 492,246.5C 491.329,247.252 490.496,247.586 489.5,247.5C 491.524,239.775 493.191,231.942 494.5,224C 494.26,218.308 493.26,212.808 491.5,207.5 Z"/></g>
<g><path style="opacity:0.024" fill="#142317" d="M 496.5,219.5 C 497.777,220.694 498.444,222.36 498.5,224.5C 498.444,226.64 497.777,228.306 496.5,229.5C 496.5,226.167 496.5,222.833 496.5,219.5 Z"/></g>
<g><path style="opacity:0.059" fill="#2d4f49" d="M 489.5,249.5 C 489.5,250.833 488.833,251.5 487.5,251.5C 487.5,250.167 488.167,249.5 489.5,249.5 Z"/></g>
<g><path style="opacity:0.532" fill="#7766d4" d="M 70.5,122.5 C 70.5,188.833 70.5,255.167 70.5,321.5C 69.6981,320.048 69.1981,318.382 69,316.5C 68.6174,317.056 68.1174,317.389 67.5,317.5C 67.5,316.833 67.5,316.167 67.5,315.5C 68.3329,255.668 68.8329,195.668 69,135.5C 69.1753,130.981 69.6753,126.647 70.5,122.5 Z"/></g>
<g><path style="opacity:0.085" fill="#86bcb0" d="M 489.5,248.5 C 489.5,248.833 489.5,249.167 489.5,249.5C 488.167,249.5 487.5,250.167 487.5,251.5C 483.167,258.5 477.5,264.167 470.5,268.5C 469.167,268.5 468.5,269.167 468.5,270.5C 467.833,270.5 467.167,270.5 466.5,270.5C 465.5,270.5 464.5,270.5 463.5,270.5C 463.414,269.504 463.748,268.671 464.5,268C 465.833,267.667 467.167,267.333 468.5,267C 475.324,262.009 481.324,256.175 486.5,249.5C 487.325,248.614 488.325,248.281 489.5,248.5 Z"/></g>
<g><path style="opacity:1" fill="#53cce8" d="M 337.5,236.5 C 334.074,245.005 328.907,252.338 322,258.5C 320.449,262.207 317.616,264.374 313.5,265C 312.743,266.512 311.743,267.846 310.5,269C 306.663,270.173 303.329,272.173 300.5,275C 290.853,279.966 281.186,284.966 271.5,290C 270.08,292.209 268.413,294.209 266.5,296C 259.291,298.55 252.291,301.55 245.5,305C 241.921,309.387 237.254,311.887 231.5,312.5C 232.972,309.882 233.972,307.049 234.5,304C 234.833,303.833 235.167,303.667 235.5,303.5C 236.48,304.981 237.647,306.315 239,307.5C 242.113,304.387 245.279,301.221 248.5,298C 256.287,295.516 263.62,292.183 270.5,288C 270.167,287.667 269.833,287.333 269.5,287C 272.792,286.996 275.458,285.83 277.5,283.5C 281.737,277.778 287.404,274.278 294.5,273C 296.681,269.827 299.681,267.827 303.5,267C 304.257,265.488 305.257,264.154 306.5,263C 310.612,262.378 314.612,261.378 318.5,260C 325.589,253.433 331.256,245.933 335.5,237.5C 336.167,237.167 336.833,236.833 337.5,236.5 Z"/></g>
<g><path style="opacity:0.013" fill="#001919" d="M 470.5,268.5 C 470.5,269.833 469.833,270.5 468.5,270.5C 468.5,269.167 469.167,268.5 470.5,268.5 Z"/></g>
<g><path style="opacity:0.153" fill="#51786f" d="M 463.5,270.5 C 464.5,270.5 465.5,270.5 466.5,270.5C 466.5,272.5 465.5,273.5 463.5,273.5C 462.167,273.5 461.5,274.167 461.5,275.5C 458.401,277.382 455.068,278.715 451.5,279.5C 451.5,278.833 451.5,278.167 451.5,277.5C 455.943,275.91 459.943,273.576 463.5,270.5 Z"/></g>
<g><path style="opacity:0.017" fill="#0f100f" d="M 463.5,273.5 C 463.5,274.833 462.833,275.5 461.5,275.5C 461.5,274.167 462.167,273.5 463.5,273.5 Z"/></g>
<g><path style="opacity:0.243" fill="#80baae" d="M 451.5,277.5 C 451.5,278.167 451.5,278.833 451.5,279.5C 449.038,281.691 446.038,283.024 442.5,283.5C 442.715,285.179 442.048,286.179 440.5,286.5C 439.791,285.596 438.791,285.263 437.5,285.5C 441.522,281.819 446.189,279.152 451.5,277.5 Z"/></g>
<g><path style="opacity:0.018" fill="#2c5b53" d="M 437.5,285.5 C 438.791,285.263 439.791,285.596 440.5,286.5C 440.179,288.048 439.179,288.715 437.5,288.5C 437.5,287.5 437.5,286.5 437.5,285.5 Z"/></g>
<g><path style="opacity:1" fill="#75efe3" d="M 336.5,247.5 C 336.127,250.574 335.461,253.574 334.5,256.5C 337.694,256.824 338.694,255.658 337.5,253C 338.667,252.5 339.5,251.667 340,250.5C 341.507,254.236 342.34,254.236 342.5,250.5C 344.124,250.36 345.29,251.027 346,252.5C 348.564,259.91 346.064,262.91 338.5,261.5C 338.5,264.167 338.5,266.833 338.5,269.5C 339.833,269.5 341.167,269.5 342.5,269.5C 342.806,291.541 342.139,313.541 340.5,335.5C 338.516,335.383 336.85,336.05 335.5,337.5C 334.121,338.863 334.287,339.863 336,340.5C 342.093,336.851 348.593,334.185 355.5,332.5C 351.566,335.27 347.233,337.603 342.5,339.5C 341.833,340.5 341.167,341.5 340.5,342.5C 336.186,344.653 331.853,346.653 327.5,348.5C 326.147,349.524 325.48,350.857 325.5,352.5C 323.801,352.34 322.134,352.506 320.5,353C 314.174,357.508 307.507,361.341 300.5,364.5C 293.99,366.594 287.323,368.428 280.5,370C 273.5,370.667 266.5,370.667 259.5,370C 257.073,369.098 254.74,368.264 252.5,367.5C 252.34,365.801 252.506,364.134 253,362.5C 255.737,363.61 258.571,363.777 261.5,363C 261.043,362.586 260.709,362.086 260.5,361.5C 261.736,360.643 263.069,359.977 264.5,359.5C 271.699,360.27 279.032,360.437 286.5,360C 287.995,358.839 289.495,357.673 291,356.5C 295.058,358.278 297.225,356.945 297.5,352.5C 293.947,352.156 290.447,351.489 287,350.5C 282.974,350.997 279.14,351.997 275.5,353.5C 273.226,353.03 271.226,352.03 269.5,350.5C 273.235,346.934 276.402,342.934 279,338.5C 279.333,327.5 279.667,316.5 280,305.5C 282.556,304.781 283.723,303.114 283.5,300.5C 281.516,300.617 279.85,299.95 278.5,298.5C 276.737,299.954 275.403,299.62 274.5,297.5C 276.58,295.427 278.246,293.093 279.5,290.5C 282.413,289.759 285.413,289.259 288.5,289C 290.424,286.069 292.757,283.403 295.5,281C 298.883,280.125 302.216,279.125 305.5,278C 309.908,271.111 316.241,267.278 324.5,266.5C 324.069,265.707 323.735,264.873 323.5,264C 328.404,258.932 332.737,253.432 336.5,247.5 Z"/></g>
<g><path style="opacity:0.237" fill="#72a99f" d="M 435.5,288.5 C 431.722,291.919 427.389,294.586 422.5,296.5C 422.281,295.325 422.614,294.325 423.5,293.5C 425.759,293.216 427.426,292.216 428.5,290.5C 429.997,289.396 431.664,288.396 433.5,287.5C 434.416,287.543 435.083,287.876 435.5,288.5 Z"/></g>
<g><path style="opacity:0.101" fill="#71a39c" d="M 416.5,298.5 C 416.52,300.143 415.853,301.476 414.5,302.5C 412.01,304.083 409.343,305.083 406.5,305.5C 406.5,304.5 406.5,303.5 406.5,302.5C 409.938,301.392 413.271,300.058 416.5,298.5 Z"/></g>
<g><path style="opacity:1" fill="#6febe3" d="M 279.5,290.5 C 278.246,293.093 276.58,295.427 274.5,297.5C 275.403,299.62 276.737,299.954 278.5,298.5C 279.85,299.95 281.516,300.617 283.5,300.5C 283.723,303.114 282.556,304.781 280,305.5C 279.667,316.5 279.333,327.5 279,338.5C 276.402,342.934 273.235,346.934 269.5,350.5C 271.226,352.03 273.226,353.03 275.5,353.5C 279.14,351.997 282.974,350.997 287,350.5C 290.447,351.489 293.947,352.156 297.5,352.5C 297.225,356.945 295.058,358.278 291,356.5C 289.495,357.673 287.995,358.839 286.5,360C 279.032,360.437 271.699,360.27 264.5,359.5C 263.069,359.977 261.736,360.643 260.5,361.5C 260.709,362.086 261.043,362.586 261.5,363C 258.571,363.777 255.737,363.61 253,362.5C 252.506,364.134 252.34,365.801 252.5,367.5C 251.833,367.5 251.167,367.5 250.5,367.5C 249.833,367.5 249.167,367.5 248.5,367.5C 244.013,362.967 239.513,358.301 235,353.5C 233.86,350.898 233.027,348.231 232.5,345.5C 231.908,342.309 230.741,339.309 229,336.5C 228.731,330.318 227.897,324.318 226.5,318.5C 226.833,317.5 227.5,316.833 228.5,316.5C 230.258,315.091 232.258,314.091 234.5,313.5C 237.359,314.336 240.025,315.67 242.5,317.5C 243.736,316.754 245.07,316.421 246.5,316.5C 246.703,314.61 246.037,313.11 244.5,312C 245.357,311.311 246.023,310.478 246.5,309.5C 245.391,308.035 245.891,307.035 248,306.5C 252.596,306.83 256.43,304.997 259.5,301C 262.833,300 266.167,299 269.5,298C 272.215,297.125 273.548,295.292 273.5,292.5C 275.685,292.296 277.685,291.63 279.5,290.5 Z"/></g>
<g><path style="opacity:0.822" fill="#96e0d3" d="M 428.5,290.5 C 427.426,292.216 425.759,293.216 423.5,293.5C 422.614,294.325 422.281,295.325 422.5,296.5C 420.718,297.72 418.718,298.386 416.5,298.5C 413.271,300.058 409.938,301.392 406.5,302.5C 406.5,303.5 406.5,304.5 406.5,305.5C 404.337,307.083 402.004,308.416 399.5,309.5C 397.821,309.285 396.821,309.952 396.5,311.5C 396.167,311.5 395.833,311.5 395.5,311.5C 394.5,311.5 393.5,311.5 392.5,311.5C 392.5,312.5 392.5,313.5 392.5,314.5C 391.833,314.5 391.167,314.5 390.5,314.5C 390.265,313.903 389.765,313.57 389,313.5C 387.403,314.885 385.57,315.551 383.5,315.5C 383.5,316.5 383.5,317.5 383.5,318.5C 380.031,317.887 378.031,319.221 377.5,322.5C 376.167,323.167 374.833,323.833 373.5,324.5C 372.167,324.5 371.5,325.167 371.5,326.5C 370.833,326.833 370.167,327.167 369.5,327.5C 368.791,326.596 367.791,326.263 366.5,326.5C 366.5,327.5 366.5,328.5 366.5,329.5C 365.833,329.5 365.167,329.5 364.5,329.5C 364.44,328.957 364.107,328.624 363.5,328.5C 361.821,330.104 359.821,330.771 357.5,330.5C 358.785,329.215 360.119,327.881 361.5,326.5C 367.812,325.347 372.812,322.181 376.5,317C 382.099,315.534 387.099,313.034 391.5,309.5C 394.503,307.208 397.836,305.375 401.5,304C 406.029,299.481 411.363,296.314 417.5,294.5C 420.823,292.425 424.49,291.092 428.5,290.5 Z"/></g>
<g><path style="opacity:0.025" fill="#385d5c" d="M 399.5,309.5 C 399.179,311.048 398.179,311.715 396.5,311.5C 396.821,309.952 397.821,309.285 399.5,309.5 Z"/></g>
<g><path style="opacity:0.041" fill="#397169" d="M 395.5,311.5 C 395.5,313.5 394.5,314.5 392.5,314.5C 392.5,313.5 392.5,312.5 392.5,311.5C 393.5,311.5 394.5,311.5 395.5,311.5 Z"/></g>
<g><path style="opacity:0.251" fill="#6aa49d" d="M 390.5,314.5 C 390.063,316.074 389.063,317.241 387.5,318C 384.141,319.502 380.808,321.002 377.5,322.5C 378.031,319.221 380.031,317.887 383.5,318.5C 383.5,317.5 383.5,316.5 383.5,315.5C 385.57,315.551 387.403,314.885 389,313.5C 389.765,313.57 390.265,313.903 390.5,314.5 Z"/></g>
<g><path style="opacity:0.124" fill="#55787c" d="M 224.5,317.5 C 224.833,317.5 225.167,317.5 225.5,317.5C 225.5,317.833 225.5,318.167 225.5,318.5C 225.756,322.269 225.423,325.936 224.5,329.5C 222.656,327.721 221.99,325.388 222.5,322.5C 222.893,320.716 223.559,319.05 224.5,317.5 Z"/></g>
<g><path style="opacity:0.012" fill="#1c3938" d="M 373.5,324.5 C 373.5,325.833 372.833,326.5 371.5,326.5C 371.5,325.167 372.167,324.5 373.5,324.5 Z"/></g>
<g><path style="opacity:0.02" fill="#43826f" d="M 369.5,327.5 C 369.027,328.906 368.027,329.573 366.5,329.5C 366.5,328.5 366.5,327.5 366.5,326.5C 367.791,326.263 368.791,326.596 369.5,327.5 Z"/></g>
<g><path style="opacity:0.012" fill="#21104f" d="M 67.5,332.5 C 69.256,333.552 69.9227,335.219 69.5,337.5C 67.744,336.448 67.0773,334.781 67.5,332.5 Z"/></g>
<g><path style="opacity:0.01" fill="#242449" d="M 196.5,335.5 C 196.5,336.833 195.833,337.5 194.5,337.5C 194.5,336.167 195.167,335.5 196.5,335.5 Z"/></g>
<g><path style="opacity:0.012" fill="#005529" d="M 225.5,337.5 C 226.833,337.5 227.5,338.167 227.5,339.5C 227.5,338.167 226.833,337.5 225.5,337.5 Z"/></g>
<g><path style="opacity:0.769" fill="#7fccc6" d="M 225.5,318.5 C 225.833,318.5 226.167,318.5 226.5,318.5C 227.897,324.318 228.731,330.318 229,336.5C 230.741,339.309 231.908,342.309 232.5,345.5C 231.147,343.807 229.48,342.474 227.5,341.5C 227.5,340.833 227.5,340.167 227.5,339.5C 227.5,338.167 226.833,337.5 225.5,337.5C 224.527,335.052 224.194,332.385 224.5,329.5C 225.423,325.936 225.756,322.269 225.5,318.5 Z"/></g>
<g><path style="opacity:0.105" fill="#273a35" d="M 351.5,337.5 C 351.5,338.833 350.833,339.5 349.5,339.5C 349.5,338.167 350.167,337.5 351.5,337.5 Z"/></g>
<g><path style="opacity:0.102" fill="#6d5baa" d="M 224.5,317.5 C 223.559,319.05 222.893,320.716 222.5,322.5C 214.088,327.202 205.421,331.536 196.5,335.5C 195.167,335.5 194.5,336.167 194.5,337.5C 186.146,342.812 177.479,347.812 168.5,352.5C 164.06,353.424 159.727,354.757 155.5,356.5C 162.508,353.014 169.175,348.847 175.5,344C 179.389,342.195 183.389,340.695 187.5,339.5C 187.561,337.408 188.561,335.908 190.5,335C 197.477,331.846 204.477,328.679 211.5,325.5C 213.215,323.118 215.215,321.118 217.5,319.5C 218.167,319.5 218.833,319.5 219.5,319.5C 221.167,318.833 222.833,318.167 224.5,317.5 Z"/></g>
<g><path style="opacity:0.119" fill="#352f6d" d="M 69.5,339.5 C 71.3904,339.297 72.8904,339.963 74,341.5C 74.6208,345.25 75.4542,348.916 76.5,352.5C 74.9217,351.934 73.5884,350.934 72.5,349.5C 70.9063,346.321 69.9063,342.988 69.5,339.5 Z"/></g>
<g><path style="opacity:0.28" fill="#6ba09c" d="M 227.5,341.5 C 229.48,342.474 231.147,343.807 232.5,345.5C 233.027,348.231 233.86,350.898 235,353.5C 239.513,358.301 244.013,362.967 248.5,367.5C 247.833,367.5 247.167,367.5 246.5,367.5C 244.5,366.167 242.5,364.833 240.5,363.5C 240.5,362.167 239.833,361.5 238.5,361.5C 236.046,359.715 234.379,357.382 233.5,354.5C 233.5,353.167 232.833,352.5 231.5,352.5C 229.332,349.158 227.998,345.492 227.5,341.5 Z"/></g>
<g><path style="opacity:0.945" fill="#7a5fd8" d="M 217.5,319.5 C 215.215,321.118 213.215,323.118 211.5,325.5C 204.477,328.679 197.477,331.846 190.5,335C 188.561,335.908 187.561,337.408 187.5,339.5C 183.389,340.695 179.389,342.195 175.5,344C 169.175,348.847 162.508,353.014 155.5,356.5C 154.5,356.833 153.833,357.5 153.5,358.5C 148.53,361.038 143.53,363.372 138.5,365.5C 136.958,366.301 135.292,366.634 133.5,366.5C 139.457,362.855 145.791,359.688 152.5,357C 154.763,355.383 156.763,353.55 158.5,351.5C 161.016,351.245 163.35,350.411 165.5,349C 176.198,341.48 187.531,334.98 199.5,329.5C 205.239,325.776 211.239,322.443 217.5,319.5 Z"/></g>
<g><path style="opacity:0.239" fill="#55807c" d="M 364.5,329.5 C 362.353,332.269 359.686,334.603 356.5,336.5C 354.955,337.452 353.288,337.785 351.5,337.5C 350.167,337.5 349.5,338.167 349.5,339.5C 347.952,339.821 347.285,340.821 347.5,342.5C 341.89,345.148 336.223,347.814 330.5,350.5C 329.167,350.5 328.5,351.167 328.5,352.5C 324.021,354.817 319.688,357.483 315.5,360.5C 310.166,362.834 304.833,365.167 299.5,367.5C 299.557,366.391 299.89,365.391 300.5,364.5C 307.507,361.341 314.174,357.508 320.5,353C 322.134,352.506 323.801,352.34 325.5,352.5C 325.48,350.857 326.147,349.524 327.5,348.5C 331.853,346.653 336.186,344.653 340.5,342.5C 341.167,341.5 341.833,340.5 342.5,339.5C 347.233,337.603 351.566,335.27 355.5,332.5C 356.5,332.167 357.167,331.5 357.5,330.5C 359.821,330.771 361.821,330.104 363.5,328.5C 364.107,328.624 364.44,328.957 364.5,329.5 Z"/></g>
<g><path style="opacity:0.016" fill="#111211" d="M 330.5,350.5 C 330.5,351.833 329.833,352.5 328.5,352.5C 328.5,351.167 329.167,350.5 330.5,350.5 Z"/></g>
<g><path style="opacity:0.027" fill="#0e2a2a" d="M 231.5,352.5 C 232.833,352.5 233.5,353.167 233.5,354.5C 232.167,354.5 231.5,353.833 231.5,352.5 Z"/></g>
<g><path style="opacity:0.243" fill="#5c4ea7" d="M 70.5,321.5 C 70.1718,326.875 70.5052,332.208 71.5,337.5C 74.6923,339.519 76.1923,342.519 76,346.5C 76.3826,347.056 76.8826,347.389 77.5,347.5C 79.5164,351.176 81.5164,354.843 83.5,358.5C 82.2209,357.032 80.5542,356.365 78.5,356.5C 77.1938,355.533 76.5271,354.199 76.5,352.5C 75.4542,348.916 74.6208,345.25 74,341.5C 72.8904,339.963 71.3904,339.297 69.5,339.5C 69.5,338.833 69.5,338.167 69.5,337.5C 69.9227,335.219 69.256,333.552 67.5,332.5C 67.5,327.5 67.5,322.5 67.5,317.5C 68.1174,317.389 68.6174,317.056 69,316.5C 69.1981,318.382 69.6981,320.048 70.5,321.5 Z"/></g>
<g><path style="opacity:0.192" fill="#362d62" d="M 78.5,356.5 C 80.5542,356.365 82.2209,357.032 83.5,358.5C 84.5804,360.996 85.9138,363.33 87.5,365.5C 83.1667,363.833 80.1667,360.833 78.5,356.5 Z"/></g>
<g><path style="opacity:0.616" fill="#6050a1" d="M 153.5,358.5 C 150.766,360.433 148.433,362.767 146.5,365.5C 146.167,365.5 145.833,365.5 145.5,365.5C 143.219,365.077 141.552,365.744 140.5,367.5C 139.833,367.5 139.167,367.5 138.5,367.5C 138.5,366.833 138.5,366.167 138.5,365.5C 143.53,363.372 148.53,361.038 153.5,358.5 Z"/></g>
<g><path style="opacity:0.014" fill="#222f2e" d="M 238.5,361.5 C 239.833,361.5 240.5,362.167 240.5,363.5C 239.167,363.5 238.5,362.833 238.5,361.5 Z"/></g>
<g><path style="opacity:0.037" fill="#3e3564" d="M 168.5,352.5 C 167.708,354.257 166.375,355.591 164.5,356.5C 158.724,360.055 152.724,363.055 146.5,365.5C 148.433,362.767 150.766,360.433 153.5,358.5C 153.833,357.5 154.5,356.833 155.5,356.5C 159.727,354.757 164.06,353.424 168.5,352.5 Z"/></g>
<g><path style="opacity:0.062" fill="#2e2b52" d="M 145.5,365.5 C 144.448,367.256 142.781,367.923 140.5,367.5C 141.552,365.744 143.219,365.077 145.5,365.5 Z"/></g>
<g><path style="opacity:0.192" fill="#3c366b" d="M 89.5,365.5 C 91.9294,365.884 94.2627,366.551 96.5,367.5C 96.5,368.5 96.5,369.5 96.5,370.5C 92.7898,370.734 90.4565,369.067 89.5,365.5 Z"/></g>
<g><path style="opacity:0.178" fill="#3b5d5a" d="M 246.5,367.5 C 247.167,367.5 247.833,367.5 248.5,367.5C 249.167,367.5 249.833,367.5 250.5,367.5C 251.918,369.308 253.918,369.975 256.5,369.5C 256.5,370.5 256.5,371.5 256.5,372.5C 253.171,372.736 250.171,371.903 247.5,370C 246.748,369.329 246.414,368.496 246.5,367.5 Z"/></g>
<g><path style="opacity:0.624" fill="#6350b9" d="M 83.5,358.5 C 88.3426,362.424 93.6759,365.591 99.5,368C 109.5,368.667 119.5,368.667 129.5,368C 130.901,367.59 132.234,367.09 133.5,366.5C 135.292,366.634 136.958,366.301 138.5,365.5C 138.5,366.167 138.5,366.833 138.5,367.5C 130.31,369.131 122.144,370.465 114,371.5C 109.93,371.218 105.93,370.551 102,369.5C 100.408,369.605 98.9085,369.939 97.5,370.5C 97.1667,370.5 96.8333,370.5 96.5,370.5C 96.5,369.5 96.5,368.5 96.5,367.5C 94.2627,366.551 91.9294,365.884 89.5,365.5C 88.8333,365.5 88.1667,365.5 87.5,365.5C 85.9138,363.33 84.5804,360.996 83.5,358.5 Z"/></g>
<g><path style="opacity:0.161" fill="#334d4c" d="M 298.5,367.5 C 298.586,368.496 298.252,369.329 297.5,370C 294.632,371.383 291.632,372.216 288.5,372.5C 288.557,371.391 288.89,370.391 289.5,369.5C 292.436,368.594 295.436,367.928 298.5,367.5 Z"/></g>
<g><path style="opacity:0.651" fill="#76bdb7" d="M 300.5,364.5 C 299.89,365.391 299.557,366.391 299.5,367.5C 299.167,367.5 298.833,367.5 298.5,367.5C 295.436,367.928 292.436,368.594 289.5,369.5C 278.755,370.923 268.088,371.923 257.5,372.5C 257.167,372.5 256.833,372.5 256.5,372.5C 256.5,371.5 256.5,370.5 256.5,369.5C 253.918,369.975 251.918,369.308 250.5,367.5C 251.167,367.5 251.833,367.5 252.5,367.5C 254.74,368.264 257.073,369.098 259.5,370C 266.5,370.667 273.5,370.667 280.5,370C 287.323,368.428 293.99,366.594 300.5,364.5 Z"/></g>
<g><path style="opacity:0.498" fill="#483d7c" d="M 138.5,367.5 C 139.167,367.5 139.833,367.5 140.5,367.5C 140.586,368.496 140.252,369.329 139.5,370C 134.361,371.961 129.028,372.794 123.5,372.5C 117.167,372.5 110.833,372.5 104.5,372.5C 101.612,373.01 99.2789,372.344 97.5,370.5C 98.9085,369.939 100.408,369.605 102,369.5C 105.93,370.551 109.93,371.218 114,371.5C 122.144,370.465 130.31,369.131 138.5,367.5 Z"/></g>
<g><path style="opacity:0.165" fill="#2e2954" d="M 104.5,372.5 C 110.833,372.5 117.167,372.5 123.5,372.5C 120.742,373.818 117.576,374.485 114,374.5C 110.424,374.485 107.258,373.818 104.5,372.5 Z"/></g>
<g><path style="opacity:0.114" fill="#253a3a" d="M 257.5,372.5 C 259.483,372.157 260.817,372.824 261.5,374.5C 259.517,374.843 258.183,374.176 257.5,372.5 Z"/></g>
<g><path style="opacity:0.256" fill="#5d928f" d="M 289.5,369.5 C 288.89,370.391 288.557,371.391 288.5,372.5C 287.5,372.5 286.5,372.5 285.5,372.5C 282.612,371.99 280.279,372.656 278.5,374.5C 272.833,374.5 267.167,374.5 261.5,374.5C 260.817,372.824 259.483,372.157 257.5,372.5C 268.088,371.923 278.755,370.923 289.5,369.5 Z"/></g>
<g><path style="opacity:0.076" fill="#243b39" d="M 285.5,372.5 C 285.389,373.117 285.056,373.617 284.5,374C 282.527,374.495 280.527,374.662 278.5,374.5C 280.279,372.656 282.612,371.99 285.5,372.5 Z"/></g>
</svg>
